<mxfile host="Electron" modified="2024-06-25T10:47:02.438Z" agent="Mozilla/5.0 (X11; Linux x86_64) AppleWebKit/537.36 (KHTML, like Gecko) draw.io/24.6.1 Chrome/124.0.6367.207 Electron/30.0.6 Safari/537.36" etag="nJaY4DDO9xRF0ALNeckT" version="24.6.1" type="device">
  <diagram name="Page-1" id="wC1ZKXb6v4UFuXyrqLu0">
    <mxGraphModel dx="2790" dy="1985" grid="1" gridSize="10" guides="1" tooltips="1" connect="1" arrows="1" fold="1" page="1" pageScale="1" pageWidth="850" pageHeight="1100" math="0" shadow="0">
      <root>
        <mxCell id="0" />
        <mxCell id="1" parent="0" />
        <mxCell id="fqI5ldCcdi-MGiuDYPDE-2" value="" style="shape=image;verticalLabelPosition=bottom;labelBackgroundColor=default;verticalAlign=top;aspect=fixed;imageAspect=0;image=data:image/png,iVBORw0KGgoAAAANSUhEUgAAAgAAAAIACAYAAAD0eNT6AAAACXBIWXMAAA7DAAAOwwHHb6hkAAAAGXRFWHRTb2Z0d2FyZQB3d3cuaW5rc2NhcGUub3Jnm+48GgAAIABJREFUeJzs3Xd0VNUWBvBvWnrvnSRAQieF3ov0IoLlWUAEQazos1csCHbFhqKIIkqxIV2iAorU0CGQ0JKQXknvM+8PjA+BtDn3zp2ZfL+1WK6FM+du4GTunnPP3gcgIiIiIiIiIiIiIiIiIiIiIiIiIiIiIiIiIiIiIiIiIiIiIiIiIiIiIiIiIiIiIiIiIiIiIiIiIiIiIiIiIiIiIiIiIiIiIiIiIiIiIiIiIiIiIiIiIiIiIiIiIiIiIiIiIiIiIiIiIiIiIiIiIiIiIiIiIiIiIiIiIiIiIiIiIiIiIiIiIiIiIiIiIiIiIiIiIiIiIiIiIiIiIiIiIiIiIiIiIiIiIiIiIiIiIiIiIiIiIiIiIiIiIiIiIiIiIiIiIiIiIiIiIiIiIiIiIiIiIiIiIiIiIiIiIiIiIiIiIiIiIiIiIiIiIiIiIiIiIiIiIiIiIiIiIiIiIiIiIiIiIiIiIiIiIiIiIiIiIiIiIiIiIiIiIiIiIiIiIiIiIiIiIiIiIiIiIiIiIiIiIiIiIiIiIiIiIiIiIiIiIiIiIiIiIiIiIiIiIiIiIiIiIiIiIiIiIiIiIiIiIiIiIiIiIiIiIiIiIiIiIiIiIiIiIiIiIiIiIiIiIiIiIiIiIiIiIiIiIiIiIiIiIiIiIiIiIiIiIiIiIiIiIiIiIiIiIiIiIiIiIiIiIiIiIiIiIiIiIiIiIiIiIiIiIiIiIiIiIiIiIiIiIiIiIiIiIiIiIiIiIiIiIiIiIiIiIiIAUCkdABGZh9gJsx1sUbEBMAxVOhYiy2PYXVeL0Xs3f1OsdCTNxQSAiHjzJ5KEZSUBTACIWjne/ImkZDlJABMAolaMN38iOVhGEsAEgKiV4s2fSE7mnwQwASBqhXjzJzIF804CmAAQtTK8+ROZkvkmAUwAiFoR3vyJlGCeSQATAKJWgjd/IiWZXxLABICoFeDNn8gcmFcSwASAyMrx5k9kTswnCWACQGTFePMnMkfmkQQwASCyUrz5E5kz5ZMAJgBEVog3fyJLoGwSwASAyMrw5k9kSZRLApgAEFkR3vyJLJEySQATACIrwZs/kSUzfRLABIDICvDmT2QNTJsEMAEgsnC8+RNZE9MlAUwAiCwYb/5E1sg0SQATACILxZs/kTWTPwlgAkBkgXjzJ2oN5E0CmAAQWRje/IlaE/mSAPEEYMgQLUpKzDeROHCgRukQiKTCmz9RayRPEiB84/bqMbQCgJ0Escgiz8mgw/bttUrHoZR+E+4w638fIiJqDumTALVUAxEREZFcVH01WmzpPeZ2F6lGZAJARERkEaRNApgAEBERWQzpkgAmAERERBZFmiSACQAREZHFEU8CmAAQERFZJLEkgAkAEVksG1sb2NraGv2LyPIZnwRo5QiHiMgUXl+4ALa2Nka//7+PPo7KyioJIyJSgqqvRmvY0nvM7S3qE8AVACIiIovX8pUAJgBERERWoWVJABMAIiIiq9H8JIAJABERkVW5lASgifN+mAAQERFZHVVfvPgiEwAiIiL6NynKAGsB1EkwTkM0Mo5NRETUKgknAHnx25ylCKQhXj2G1oErFURERJLijZWIiKgVYgJARETUCjEBICIiaoWYABAREbVCTACIiIhaISYARERErZDVHwcce2uEo+fTPWqVjkMppR9myTq+jY0OUDXabKpR1VXVEkZDRGQ6lv75Z/YJgEoFtcFg/PuDgrUXVYYK6QKyMGVawCBj+vPuO29BJfADcP+DD8Og10sYERGRabz11uvQaoy/jc59+L+oqVHu+ykfARAREbVCTACIiIhaISYARERErZDZ7wFozWpra1FVUSU0hsj+CSIisl5MAMxYTVUNCguKhMawgaNE0RARkTXhIwAiIqJWiCsARGSxDAY99ALPufiIjFozJgBEMlGrVPD09ISnl+el/3p6wN3dHU6OjnB0dISTkyMcHBwAAHa2tlBrNAAAg16PispKAEBFZSVKS0pRWlaG8tIyFBZdRH5ePvIL8pGXV4DcvLxW3Ufhv48+oXQIFuuf+enp8c8cdXd3h5ODIxyd/v5lzPzMz0dBfgFy8/OQm5vfquenuWMCQCQBtUoFf39/hIeHITgkGEGBgfD394etrU2Lx1Kp1f8kBg4ODvD08GjwtTU1NcjMzERaWgYupKXh3NlzSMvI4Icu/YtapYKfvx/ahocjOCQYgQEBCAjwh62tbYvHMmp+pmcgLS39n/mpr6sz+s9C0mECQGQkf38/dOncCREREQhvGwZ7O3uTx6DT6RASEoKQkJB/fq+ysgrJKSlIPJWIEydPIj0tHQaudbc6fn6X5mdk/fy0N4/5WVVVhfPJl+ZnQsJJpKVzfiqFCQBRM6nUakS2b4/omCh06dQJ7h7uSod0TXZ2tugQGYEOkRG4/voJKC4uxvHjCTh0+DBOnUxEnZ7fvqyRSq1GRLt2iImJRufOHeHRyDdzJdna/nt+FhWX4MSJE5fmZwLnpykxASBqQlhYKHr36omo6Ci4ODsrHU6Lubi4oF+/PujXrw/Kyspw+PBR7Nu/H2fOnOU3LysQGtoGvXv1QlR0FFxdLG9+uro4o1/fPujX99L8PHLkGPbu348zp89wfsqMCQDRNdjb2SM2NhqDBg5AUHCQ0uFIxtHREf3790X//n2Rk5ODXbv2YPfuvSgpLVE6NGoBOzs79IiNwcBBAxAcZF3zsz5ZrZ+fe/bsRXEJ56ccmAAQXcbT0xPDhg1Bv759jdrAZ0l8fHwwadJEjJ8wFgcOHMLWrXHIzJT3+GgS4+npiYED+2PgwP6K7DkxpSvnZ1zcr8jIyFQ6LKvCBIAIQHBQEEaPHoXuUd2gFjje2BJpNVr07tUTvXr2wImEBGze8gvOn0tWOiy6TGBQIMaMHoXo7t2gUreu/m2Xz8+EhJPYvPkXnDt/XumwrAITAGrV/Px8MWrUSPTs2aPV3fivpFKp0KVzZ3Tp3BmnEpOwdu06pKamKh1Wq8b5+X8qlQqdO3dC586dcCoxCT//vA4pKZyfIpgAUKvk4uKC6yeOR+8+vVv9B+u1dIiMwJNPPIpDhw7jx59+RkFBgdIhtSquLs6YMHEC+vbu1eq+8TdHh8gIRD7+KA4dPoKfflyLfM5PozABoFZFq9Fi0MABGD9hLOzs7JQOx6ypVCrExESja9cu2LZ9B7Zs+QWVlWKnU1LjNGoNBg8ayPnZDCqVCjHRUejWrQv+/PMvrF+/EZV/dyik5mECQK1G27bhuP32W+Hn66t0KBZFp9Nh5Ijr0LtXT6xa/R2OHDmqdEhWqW343/PTj/OzJbQaLYYOGYyY6CisXvM9Dh8+onRIFoMJAFk9ezt7jJ8wFoMHD+JyvwBXV1fcM/tuHDx0GKtWr0FpSanSIVkFOzs7TJgwjvNTkKurK2bPmomDhw5j9arvWNraDEwAyKqFhYfirjunwcvLS+lQrEZMdBQi2rXD1998i2PHjisdjkULCwvFXdM5P6VUPz9XfLMSR48dUzocs8YEgKySWqPBmFEjMXbMKG6ikoGTsxPunTMbe/ftx8pVq1FdVa10SBaF81NeTs5OmDNnFudnE5gAkBiDASLNOlWC778Wd3c3zLp7JkJD20g8Ml2pd6+eCAoKxJIlS5Gbm6t0OBbBzc0Vs2bORFh4qNKhWL3evXoiOCgISz7/HDnZ0s9Pgx4wqI3/BFO607HZP3Dy7jlUqB10/5c7QqU2+z/mNVWUVSA/r1BoDJvNjkArOlujXbu2mDlzhkX2RLdklZWVWP71N9yA1YS2bcMx6+4ZcHFxUTqUVqWysgrLv17R6ubnrth2Grz4YoNng3PtiazGkCGD8fBDD/DmrwA7OzvcffcMjBkzSulQzNagQQPxyNwHefNXgJ2dLWbdPQNjx46Bihst/8EEgCyeSqXCuLFjcPNNU6DWaJQOp9VSq1SYMH4c7px2O7QaPl2sVz8//3PLTZyfClKpVBg/bgxmzpgOnY7zE5BgD0DOi52dVOW1sqVUnbbJNTJZA51Ohxl33Ynu3bspHQr9rXfv3nB1c8NnS75ARWWF0uEoSqfT4a7p0xAV1V3pUOhvMTHRcHJyxKdLlqKionXPT+EVAHVZZa7KUFss2y/Jt4iRtbCxtcG9987mzd8MdYiMxNyHH4Cjk5PSoSjm0vy8hzd/MxQREYGHH34QTs6td34CfARAFsre3h5zH3gAHSIjlQ7F5GpqarDm53XYtW8f8gvENonKKSQ4GI8+Mheurq5Kh2Jy9nb2eOjB+9EhMkLpUBSxMS4OW7f9juQLF6DXN7gHTVHBQUH47yNz4ebW+uZnPT4IIYtjb2+PuXMfQEhwsNKhmFxVVTXmvf4a4i/bzezl4YGIdu3QpUMH9O4RizZBQQpG+G9+fr54ZO5DePe991BU3Do6s9nb2WPu3PsREhKidCgmZzAYsGT5cnz387p/fs/B3h7twsPRMaI9ekZFo2unjtCYyV4IP19fPPLwQ3jn3fdRVFSkdDgmJ/zsPu/xthUAZDu1otP2YOgNxocpWgaorzUACj2GqCirREG+2Dc8261OVlUGaGOjwwP334d27doqHYrJlVdU4LkFC3H0xIlGX+fv64s+PXqgb88e6NqpE3Ra5fP8jIxMvPve+ygrK1M6FFnZ2Ohw//33on27dkqHYnIGgwEffPY51m3Z0ujrnBwd0SMqCn16xKJXbCxczOAxUU52Lt559z0Ul1hXktpUGSATgCb89cJJGPSWuw+hvX8AVObf7qFZdDodHrhvDtpHtFc6FJMrLSvDM/PnIyExqUXvc3ZywqC+fTFp7BiEtVG2MVJqaioWLfrIajcG6nRa3HffHERGtL5lf71ej3cWL8aW335v0ft0Wi1iu0dh5NAhGNCnN9QKdkW8kJaG9977wKo2BjaVAAivwzzR3+M5yPgo4aNkVxgEbmAhQ72F6j4vbMtTagFAEp7OzlaRAKhVKsycMR2dO3dSOhSTq66uxuMvvoiTSaeNeu/pc+ew/pdfcOjYMWg0GoQEBUGjwAetq6srwsPDEB9/wGyfCxtLpVJh2tQ70K1bV6VDUcS7n3yCzb/+1uL36fV6pGVmYMeuXYjb/gcqKioQHBQIewWOQnZ1cbG6+XkhwONlbN/e4B2MmwDJIkyefEOr3E1tMBjw1kcf4dTpM8JjHUs4idcXvY8777sfP27cgOpq0/dHb9++HaZOvd3qmrFMmnQ9evbsoXQYivh+3XpsivtVeJysnGwsW7kSt82+B+8u/kSRDa7t27XDtGl3WN38bAgTADJ7gwcPxLBhQxSOQhlfrV6N3//cKemYOXl5+HjpMtx5/wNYu3ETqmtqJB2/KT17xGLMmNEmvaacBg7sjxHXDVM6DEXsPXAAS5Yvl3TMmpoabIyLw9T77sNHS78weSLQIzYGY61ofjaGCQCZtfCwMEyZcoPSYSjitz/+wDfffS/b+DqdDi7Ozop07Rs3drRVrOiEhYfippumKB2GIs6npODVd96Vbblco1HD2ckR9vamfxwwduxoxERHmfy6pqb89mCiBri6OGPWrBkmvUEdTUhAeJs2cHJ0NNk1r+X0uXN4+6OPIXQSVgOcnZxw5y23YNyokYpVCNQ/M8/KykJWVrYiMYhydXHGrJkzTTo/8woKUFxcjPDQUJNd81rKysvx3ILXUC7Dhjm1WoXxI0di2s23KFajr1KpcMcdtyMjMwtZWVmKxGAKXAEgs6RRazBr9t0mayJTWVmFD5cuxWMvvGCS6zWmpqYGry96X5al+UH9+mLp+4swadxYxcsD7exscffMGdDpdIrGYQy1RoO7755p0hvUL7//jrvnPoz0TOVvSB8tXYbs3BzJxw1r0waLFizEQ7NnK96gx87OFrNnzYCNjeXNz+biCgCZpbFjRyM8LMwk10pITMQbH3yAtIxMAICNjY1JrtuQZStXIvnCBUnHdLC3x9x7ZmP4oEGSjisqIMAfUyZPwqrV3ykdSouMGTUSbduGm+RaBRcv4r1PPsWuffsAQPGDbHbHx2PrtpaV+zVFpVJh0tixmD1tqlklhH5+fpgyZTJWrlytdCiyYAJAZqdteDhGjxoh+3X0egO+Wr0KK3/4AfrLej0oeZJdQmIivl+3XtIxQ4OD8dJTTyDQP0DScaUyaNBAJCScwtFjx5QOpVnCw8IwZvRIk1xrT3w8Xlv0Pkova6Ck1Sp3gywqKcG7iz+RdEwHe3s8Nfch9OvVS9JxpTJwQH8knkrEwUOHlQ5FcnwEQGbFzs4W0++aBpXMdeolpaV4buECfPPd9/+6+QOA3qBM68Sqqmq8/v6Hkm6q6hHVHYsWLjDbm3+9O26/Fc5OzkqH0SRbW1vcddc02Y/1NRgM+HrNGrzw2mv/uvkDULRG/cPPPkdBoXS78n28vPDeq6+a7c2/3q3/uRmuLuY/P1uKCQCZlesnToSnh4es10hNT8fcp5/BvgMHr/n/KyurZL1+Q1av/QnpmRmSjTe4Xz/Mf/YZODo4SDamXJycnXDjTZOVDqNJEyeOh6enp6zXKK+owEtvvImvVq2+KjkFgMqqSlmv35CjCQnYtlO6ktSgAH8sWrgA4aHKdqhsDkcnJ9x0041KhyE54bVOA1CqgqxfmZTdjk0mExYWioGDBsh6jf2HDuHlt95CRUXDH6Jl5eUmrwIoLi6WdOn/usGD8cSDDyjaWrWlevaIxYH4g2b7KCA0tA2GDBoo6zVycvPw1MsvIzU9vcHXlJWVyxpDQz7/+mvJxmoTFIQ3X34JHm5uko0pt5iYaHSPP4AjR44qHYpkhBMA7zfPeksRSIPj92xjwY14qbm0Gi2m3nE71DJ24Nq1bx/mv/1Ok7vr8wsK4Ost67S+yorvf5CspKp3bCwef+B+i7r517vllhuRmJSEqiplVmEaolFrMPWO22V9NJWZnY0nXnwJmdmNl0XmFeTLFkNDdu7d2+JzKBri5eGBhc8/b1E3/3q33HwTEhMTFVsllJrlfUKQVRo6dBD8/HxlG/+X33/Hi2+82azSupy8PNniuOb1cvOw/pdfJBkrom07vPDYY2Zz3GpLubu7Y5QJNoC21OAhA+Hv7yfb+OeSk/HQU083efMHgNx80yYAer0eX367UpKxHOztsfCF5+Hj7SXJeKbm5uaK0aNHKR2GZJgAkOKcnZwxeox8P1Q/bdyItz76uNmbp1LTGl5+lcNXq1ejRoKaf1dXV7z4xOOwtVW2jFHUdcOHwdvEKzCNcXR0xBgZP/RPJp3Goy/MQ2Ezz6M39fz8dccOScpSVSoVHn/wAYSFhEgQlXKGDRsCHx8fpcOQBBOAJqh1Kqi0yv2CBmK/LMCEieNgb2cvy9hxO3bg4y+Wtaij3tnkZFliuZbc/Hz8tuMP4XFUKhWeefhhi/1mdTmtVotJ109UOox/TJgwDo4y7QlJTUvDs/Pno6S0tNnvOZecLEuHyIZ8v36DJOPcNHECBvbpI8lYStJqtLhhkvnMTxHsA9CEvs93UOzaFWUVyM8TK7lRbVYBylS1NYuPjw/69ekty9jxh4/g7Q9b3k436Yz4yXvNtW7zZtTW1QqPM3H0aMR27yZBROYhOro7QkPbIDk5RdE4vL280L9/X1nGzisowFOvvILiFtz8gUtVAmkZmQgOlL+0MyExCeckSIhDg4Nx1223iQdkJrp374awsFCcP5+scCRiuAJAiho3drQsNdVJZ8/i5TffNOrmmpufj4zMTMljutKlU8/Ej1H19fbBrKlTJYjIvIwbN1bpEDB23Bho1NLPz7Lycjwzfz5yco3bb3LkxHGJI7q2DVvjhMdQq1V4/MEHzarDnxQmjB+ndAjCmACQYvz9/RDbI1aWsV96402hXfWHjsv/Absn/gCKS0qEx7l3xnTY2dlKEJF56dypI9q3a6fY9X18vdEzNkaWsT/96iucE1jdOHxM/vlZWlaGHbvE6/7HDL8Oke3aShCReenQIRLtI9orHYYQJgCkmNGjRspW9ucruEnnr7/7rstp67ZtwmPEdO2GAb3leYRiDkaNMk3L3WsZM1qe1SkA8PcVqyjYd/CgJBtHGxO3fTuqqqqFxnB0cMDM261n6f9Kcm4ONQUmAKQId3c3xMRGyzZ+986dhd5/6MjRq1qwSqmsvBzxh8V7i0+/7T8SRGO+OnXqgKDgIJNf183NFbFmPD/LKypw4MgRiaK5Nim6/k0ePx4uLi4SRGOeOkRGIDjI9PNTKkwASBHDhg6V5dlqvW6dOwm9v6a2Ftt2/iVRNFfbe+AgamrFNv/FdOuGTpGREkVkvoYPHWzyaw4bMkTWQ6Ei2oULP7bZum27NMFcQ35BIU6dPi00hoO9PSZbwXPypgwfPlTpEIzGBIBMztbWVrad1fU6R0YKbzrasHWrRNFcbZcEjximTBgvQSTmL7ZHrEm/RdrY2qD/gH6yXkOr0aKzYPK2a99+FFy8KFFE/7bnQPw1zyFoiZHDhsLZyUmiiMxXbI8YuLm5Kh2GUZgAkMn16BELOzs7Wa9hY2ODju3FNuicPX8exxJOShTR/xkMBuFNhr7ePugZLc8GNXOj1WjRV6ZS0WvpERMDe3t5+lJcrnvXrkLvr62rxYZf5ElSD0rQ737CKMt+Pt5cGrUGfftaZn8DJgBkcgP6y/vtqt6gvuKrDN98/50EkfyfXm/AH7t3o6iZXd8aMmrYUKjV8p2bYG4GDOgn6zkRl+tvqvnZR3x+/rRxo2RnSACX5ueZ8+ew7+C1T8psro4R7dHGgp+Nt1S/fn1NNj+lxEZAZFJBwUFo08Y0rUCHDuiPT778SqjRTvzhI0hITBR61q7X63HwyFHE7diB/YcOSVL617+3eZ+fLjVPT09ERETgVGKirNcJDAhAWFiorNeoFxTgj44R7XEyyfhn7SWlpfhpw0bcLnBUrRzzc0Bvy/xGbCxPDw9EdojEyZOnlA6lRcy+WaxjYNiLIu8PGeoNlQVmZgBQW1OLinKxs781Z2wAMzpPccR1wxEeHmaSa9nZ2eHU6TNIy8wQGicl7QJGDx/e4nlUXlGBHzdsxKvvvIN1v/yC8ykpqKoWK6uqt3PPXlRWVSI8NBS2Npbd+7/5DDhyRN6jgkcMH4bwtuGyXuNyNTU1wt+2E8+ewehhw1r82KK8ogI/bdyE+W9LPz9Pnz+P6upqhIW2aTXzUwXgsJkdFXwhwONlbN/e4B2gyRUAQ/xsB+hcFLuD+tx9QKlLk8RUKhWio7ub9JrXDRmEPQfihcZISExC3I4dGDlkSLNeX1tXi+/Xrcean9a2uM1rc10sKsLy1Wvw/br1uHHiRPznhkmwsfIP2u7du0OnW42aGvHWydeiUqkQLWPp37UM7d8fi7/4UmiVqqKiEp9/vQJPPPRgs15fU1uLH9bLOz9LSkqwfPVqfL9uHSZPGI/bJk+2+vnZrVs36HQ62fszSKnpBKDWqQy1zTtFTQ4qFWDCcy9IRuFhYfDw8DDpNfv17AlHBweUlZcLjfPJsi/RIyqqyTPMj544gfc+XYLUtDSh6zVXeUUFlq9ejbjt2/HgrFnoFWPaG5gp2dnZoWOHjjh6TJ5VgNDQNvA08fx0cXFBr5ho7Nq/X2icrdu3Y0j//ujVROdCJebnijXf4dftf+DBWTPRO1aezp/mwM7OFp07d8Lhw/L2Z5ASNwGSyURHR5n8mjY2Nhg3Uvx8+eKSErz78eIGDxbS6/VYvnoNHpv3osk+XC+XmZ2NZ+bPx7uLPxHuL2DOomPkm0NRUaafnwBwg0S18u8sXtzgN/r/z895iszPrJxsPPvqgkvz04K+IbdUdJRpVzhFMQEgk+ki2P3MWDddf70ky4+74+Px3br1V/1+aVkZnnjpJSxfvRp6vXKrZQCwMS4Ojzz7bLPPlrc0XTp1lG23ddcuyszP6K5dJWnolFdQgNfee++q+v2S0lI8Nu/Fv+enssupG+PiMPeZ51BQKHbKqbnq1KkjVGrLua1aTqQK0dcZYKhV7hfqIPbLTHh6esLH11uRa7u7umLcCPFVAABYumLFvw5iKbh4EY++MM8kh7M016nTZ/Dgk08jXXDzozlydHJCcEiw5OO6u7vDz89X8nGb646bbpJknH0HD2HFd/8vXS0oLMSjL8zD0RMnJBlfCklnz+DBp55BWob8J26amqOjI0JNVOUkBdnLAKszswGDwLcihZ//737pFAwKZ80i2vs7QAXlqyC6dBFrzSvq5knXY8PWrcLLj3V1dXjxjTfw7qvz4ersjLnPPIvM7GyJopROVk42HnnuBbz36nwE+Bl/8ExFRSVKykpRV/fvbNLR3h5OTs6K9CLo3KkTUlJSJR1T6fnZKyYaEW3bIunsWeGxvl6zBn4+XojpHoW5Tz+L7NwcCSKUVnZuDh559lm8t2A+Av0DjB6nuqYGpWVlqKqq+tfv29rYwNnZGTqt6SvdO3XsiPPnk01+XWPI/rdTtmc/DHqRr6LBgBncwEhMZESEotf39vTEqKFDJWnvW1pWhqdffgUODg5mefOvV1BYiCdfehmLFi5ocPOiwWBARlYmEk+fRXJaGrKys5CZnY3snFwUlZRcdeO/kouTE9xcXeHn54uQwEAEBQQgNDgYEW3byrbrOzIyAps2b5F4TOXPVLj9ximY9/obwuMYDAa88/Gn8PL0MMubf73CoiI8+dJ8vL/wVXi4uzf4uosXi5B49gzOJicjIysLWTk5yMzKRmFREaqbKFt0sLeHi7ML/Hy9EeQfgKCAALQJDkJk27aytZfu0CESGzdtlmVsqbEREJlEWLjpaqsbcuet/8GOXbtQIkHpU15BAVBQIEFU8srMzsbzCxbgvVdf/edshHPJKYg/fBgHjx3FqaTTQqceFpeWori0FKnp6dh34P/17FqNFu3bhqFjRCSiu3VFbLdukiUEoaFtoNVohUrnrhQeZpreFI3p37s3Yrp1w8Gj4rXktXW1yMox35t/vaycbDy3YCEWLfimrvxyAAAgAElEQVT//MwvKET84UOIP3wEJxJPISc3z+jxyysqUF5Rgayc7Kse0wUHBqBjRAdEdemI3jGxcHWVpp9/mzYh0Om0spWrSokJAMnO29sbri7OSocBd1dXzJo6Fe8sXqx0KCaVeOYsFi5aBDcXF+zcu88kG7Bq62pxMuk0Tiadxo8bNsDW1gax3brjuiGDhVs063Q6BAUHIjk5RZJYPT09zeYwl7n3zMKsh/+LaiveKX+lpLNn8c7HixHo748/9uzGOYn+XZtyIT0DF9IzsHXb71Cr1egYEYF+PXvixokToNEY3yNPq9UiOCgY586flzBaeTABINmFh4UqHcI/xlw3HL9s24YTpyyrZaeoP3btVvT6VVXV2LV/Pw4eO4reMbGwtRVbDWjbNlyyBMBUnSmbI9A/ALdNmYIvV61SOhSTituxQ9Hr6/V6nDh1CidOnUK78HDEdu8mNF54u3CLSABYBUCyCw4xn0NBVCoVHrl3jqxnvVPDKiursP/wIeFxgiU8aCY42HzmJwDcMvmGVnWQjrnZuUc8WZZyfsqJCQDJLigwUOkQ/iU0OBi3TpmsdBit1p+79wiPESDhnAoysw9rnVaLh+fMgdqC6smtyc49e4X7eZjbZ15DOMNIdoEBxpf5yGXqzTcJL/ORcfbExwuXY/r5+Ui2ihMY4C/JOFLq2qmjZL0BqGUKi4pwXPARoa+PN7QKlCC2FBMAkpWrizMcnZyUDuMqarUazz7yCHy8vZQOpdUpKy/HkeNijWm0Gi28fcT/7ZycneDsrPwG1Wu546YbEdW1i9JhtEq79u0Ter9ao4Gfr49E0ciHCQDJytPTfG+wLi4ueOWpp6z+lDJzdPTkSeExvCSYW16ensJjyEWtVuP5xx4TauRExjmWkCA8hocZz616TABIVp5e5v1D0DYsDA/MnKl0GK3OcQk+YKWYW55m/iHt6uyMl558Ag729kqH0qqcOZ+MiopKoTGkSFDlxgSAZGXuH7AAMHbEdbhtMjcFmtKp06eF9wFIcXSvOa8A1Atr0wYvP/UUbP5ulNMqKNx9va6uDifPJAmN4eHVcHdDc8EEgGRlLg1WmnLX7bdJdmAQNa26pka47727h/gHrKXMz6iuXfD0ww+3nsoAM+j+fjxBbCOghxsTAFKQi72j4gcBOZnhBsBrUalUmHvPPRg9fJjSobQaiWfOCL3fydFBOAZLmZ8AMLBvHzw1d65QlzpqvlNnTgu939HJUaJI5MMEwErZ29jAV6Le1iKk+JA2FbVahUfvuw8TRo1UOpRW4UJ6utD7HRzFb97mWKHSmGEDB+DZ/z7CRlYmkJYudpy2kwTzU25MAJqg0gBqjcpkv1Rq8V+2NjoEeHhCpVJ+Hc3SPmDrVwLum3mXWfz9WTPR8+CdJfiG5eRgOQlqvUF9+2LhC8/B0QJjtyRZOTlC+1QsYQWAaWQT+s3raLJrFV8sQXFRidAYqmoVtH/ZQVVmHrmdnZ2d0iEYZfK48XBydMKbH3wIg0HhHUkK0ul0cHJwgJOTI2prLx0NbDAAxSXFKK+oEBpbdAVAirlla2+Z8zO6a1e89+p83PfEk8KbKS2ZWq2Ck6MTnBwdoVarUFd3qYNfWUUFSktLoNcb/7Or1+uRmZ2NECM7RdpbwGcfEwAzUV5WIXzzRx2g3W9rNjd/4FJbU0s1csgQrFjzPTKyxL6pWgK1Wo324WHo0D4Cke3CERQQhABf30Y3ydXW1SI7Jwfpmdk4n5KCU2dO42Ri0qWjkpshv7AQFRWVsDfyJqzVic8tS15KD2vTBu6ubsjJy1U6FJMI8PNDp8hIRLZri9CQEAT4+cLb06vBjZEGgwF5BQXIzMpCano6Tp0+jcTTZ5B84UKzk/q0jAyjEwCNBXz2mX+ErUBVVRUK8y+KDWIAtMdsoSo0rw1CagvfsFQn4ZnzZkcFDB84CP169UR0t25waeHjGq1Gi0D/AAT6B6BXTPQ/v38+NRX7Dx7Cjl1/IfFMwzv9DQYDcvLzjD74RqPWQK1SQS+wQqPVWvb8rKwSq1U3d927dMHgfn3RMzoa/r6+LXqvSqWCt6cnvD090a1zZ4wfeWlvT8HFi9h/8CD+2rsP+w8dQk1twz/jWbk5RseuVqmg1migr6szegy5MQFQWG1tLQpyCoWXmTWJOqjTzO+f05JXAACgQnCZ25ypoMKTDz0oeWlZWEgIwkJCcPOk63EhPQObf/sVm3/9DSWlpVe9tvQav9cSGq0G+hrjkzQpVhGUZM3zEwBee+F5yT9DPNzcMGrYMIwaNgzFpaX4/Y8/sXbTxmvuSSktLRe6llarQbUZJwDms1bcCunr9MjLKUCd4MlT6gtaaM6YZztbi398zo2AQoIDAzB72jSsXLIE98+cAQ83t3/9/2slBSbF+WnW5P7juTg5YdLYMfji/Q8w/5mnEdG27b/+f2lpmbwBKIwJgEIMMCA/rwC1At9eAEBVoIb2mK1EUUmv1sKX0C1hI4+xbG1tTNZYxs7OFjeMG4flH3+MGbffBju7S3O2pEzsA7auVuzbVW0jy7+WwJrnp41OZ7I9Gmq1Cn169MBHb7yOeY8/Dj+fS48bSsvEEtRawfkpN8te/7JghXkXUVVZLTSGqlQF7X47QGwBQVbm/PyrORysuNTKwd70fzY7O1vcNmUKhg8ahI8+Xyr0CKBOXyf0/B8w/w/opjjYO6C4RHDzsJlS4mdPpVJhYN8+6B0bgxXf/4AL6WlGj6U3GMz+848JgAKKL5agvEzs2Z2q+tLNX1Vj3kuAjW2wsQTeXp44n5KidBiy8FXwKGRfb2+8/PRTKCoqMnoM0dUzwPJXqHy8vZCVk610GLLw8fJW7No2NjaYcdutKC4uNnqMOgv47OMjABOz1nK/hlSWW/YmpZDAQKVDkE1woHG776XkKtCtslyCuWXpm+iseX6GBCn/Z3NxcTH6vZYwt8z/DmJFJCv3O2pnduV+DSktt+xNNG2CgpUOQTbm8AErolxw/8ClMcR2eSstJNiy/w0bY+nz0xI2EDIBMJHamjrpyv3SLePmDwBlgj8EG+PikJmt3BJnl46m6wRpat06dVY6BCElghu0APEqhEPHjuHAkaPCcRira8dOil1bbt06WfafrUzpCpdmYAJgApfK/fKtutyvIaWC39LOnj+PmXMfxjfffa9Iy9PgwAB4W8CZ8S3lYG+PiHbhSochRIpHAKKrCBUVFXjypZcw/+13kF9QKBxPS7UNDRNapjZXtrY2iGzfXukwhJSVm//qEhMAmf1T7ie4IUSVrzHrcr+GXCwUe+Th5OiE6upqLFu5Enc+8AA2xsWhzsQ7a3te1uXOWsR2727RbXABoKCZLYcbUyg6P//unrj9r79w5wP34/OvV5i0t4FarUKPqO4mu56pxHaPsvgmYgWF4vNTbkwAZCZJuV+JGtp4W7Mu92tIfn6+0PudHP9/olZObh7eXfwJ7npoLtZu3CR8GE1zjRg8xCTXMaXrBg9SOgRh+fniH7B5ovPT4f/zs7KyCqt++gl3zLkXn371FbIF2si2xIjBg01yHVOyhj9TQZ7pV4RayrJTLDNXXCRRuV+8rdmX+zUkr0C6BKBeRmYmPly6FMtWrsTAvn0wYvBgdO3UGWq19H9HCYlJ2P7XTqjVaugFH+GYC41Gg9CQEKXDEJafJza3APFVhGvNz7Lycnz38zr8sH4DekR1x/BBg9C/V+9/mh9JKTs3B0lnzkCj1qBOb941582lVqlgo7OsR53XIppcmgITgCYY9Aaj2tlWllegqMD4GlIAf5f7mc/RvsbIzxX7IWjsNLqy8nJs+e13bPntd7i4uKBHVHf06N4dHSIiEBwQAJURfUQzs7NxMuk0Dh49gv2HDinyXFdudXV1uP+JJ/HEQw+iX8+eSodjNCk+YHMFkwg3VxeoVKprbu7V6/XYd/AQ9h08BBudDt06d0KPqGh0ioxE+/Aw6HS6Fl+vqKQESWfO4PDx49h/6BDOJVtfjwq9wYDnFi7ArZMnY/qt/zFZt0qpia5+mgITgCbsevEUDAJnSovwd/OArb3l7Pi/luKSEpSUlMDZ2dmo9wf5+zfvOsXF+P2PP/H7H38CABwdHBASFIgAP3/4+vjA1dkZLi7OsP37m0VlVSVKy8tQWlqGrJxcZGRlIfXCBRRbwM5dKZSWlWHea6/j1htuwPTbbpNl9UROtbW1yM0RPwa3rLQURcUlcHUxbn7a2NjA28sTObl5jb6uuqYG8YePIP7wEQCXDskKDgpEoJ8/fH284e7qBlcXFzjY2wO49Oe7ND9LkZufj8zsbFxIzzTZYwWlGQwGfPvDDzh1+jSeffS/cDXy80Mpdfo6ZGeb/78VEwAz5eXsCue/PwwsXXpGJjpEGvcD7O/nB41G0+KNf2Xl5TiZdBonk04bdd3WwGAw4Nsff0RKejqeefhh2NpazrJrZlaWZEve6WnpcO3Uwej3B/kHNJkAXKmmthbnklOs8hu8lA4ePYoHnngSC557DsGBAUqH02yZmdkW0WXSMtdWrJyLvQM8Wng2uzlLT0s3+r06rRa+Pj4SRkNX+mvvXjz+4jyLWv1IT8+QbKyMdOPnJwAEW3E3PnOQmZ2Nh597DqdOn1E6lGbLlHB+yokJgJmxt7GFr6u70mFI6kKa8QdqAEBQQPMeA5DxEhKT8Mgzz6LgomCnShNJE5xTlxOdn4EBfhJFQg0pKirCY/NewOFjx5UOpVnSBA4RMiUmAGbERqtDgLuH1R3xffbsOaH3h1nBjnVLkJKWhifmvSh0QI+piM6py505Jzo/20gUCTWmsrIKz7+2EMcSTiodSpPOSDg/5cQEwExo1GoEuntAY6E7XhuTn5+PixeNv6l07mD881lqmeQLF/D4Sy8Ld3CUU1VVNdIuiC3bX66woBCFhcZXe3RsH2HxTZUsRUVFJZ599VWcFkza5FRTU4MLqVwBoGZSQYUAD0+L73zVmHPnzxv93s4dOhhV0kfGOZecjBffeMNsNzGlpCRLXvN+7pzx89POzhbtwkOlC4YaVV5RgWdema/oGSGNSU5JMdufnSsxATADfm7usLeCxheNSUpMMvq9rs7OVn3sqTk6fOw4Pln2pdJhXNOpROkrOxIF5idg3YdGmaPCoiK88NrrqKysUjqUqyTKMD+N9dutMxvdQMUEQGFezi5WU+7XmGMnTgi9v6uFnwxmidZu2oyt235XOoyrJJxIkHzMEwliYzIBML3zKSl4Z/HHSodxlROCn3VS8fLygoedw5LGXsMEQEEuDg7wcLKsBhfGKiwoRJbAkl1sd+s78MQSLFryGc4lJysdxj9KS0olrQCoV1h4EZmZWUa/v3vnztwHoIDf/9yJtZs2Kx3GP8pKS3Eh9YLSYcDR0RH33zcHKpXau7HXMQFQiIONLXxdrKvcrynHjxufGfeKiZGll7rUrG2nQlVVNZ5f+DqKSkqUDgUAcCLhBPTG9OZuBpH56ezkhOhuXSWMxhqpZPkB+WTZl2ZTGXAi4aRs87O5dDot5syZBV/fpvunMAFQgI1WB38rLPdrysGDh4x+r62tDXpGm++xvE6Ojrjtxhvx6nPPIjzU9GVhwYEBeH3ePMy47VZoNNK2j87OzcGnX34l6ZjGiheYQ005IDj2wD59JIpEehqNBsMHDcJTcx9SZH4G+gfg9XkvYOFzz8HNteHzPYxRW1eL19//AFVVYqeuSkF0DolSq1SYfuedaBse3qzXc83KxKy53K8pKSmpyC8ogKeHh1HvH9S3L/7cvUfiqMSEBAZi/KiRGD18+D993GO7d8fPWzbj2+9/xEWZa+qdnZxw06TrcdOECdDpdIjt3g1RXbvi5TffQp7gSXeXi9u+HSOHDEFU1y6SjdlS5eXlSDwptlmvMampqcjNzYW3d6Orpg0a0LsXFi1Z0uK21XJycXHB6KFDMHHMaPj5+AIAhg4YgJ83b8a3P8g/P50cHXHz9RNx0/XX/3P40ZJ338GCd9+VtKlPVk42vl6zBndPvUOyMVuqoqICJ0+eUuz6ADB58g2Ijm7+41ImACakUll/uV9jDAYDDh04hOtGDDfq/b1jY+Hs5IQShVvWOjs5YUCf3n8fQ9zpqhJFjUaDyePGY9x1I7Exbit+WL8B2bniB9dczsPdHZPGjcWkMWP+STzqdYqMxIdvvI7nFyyUrF7aYDBg0ZJPseSdd4w6xU4Khw8flb286uChwxg1coRR7710ImUU9h44IHFULaPTahHbPQrDBg3EwD69r/r30mg0mDx+PMaNkHF+urlh0tgxmDRu3FXz08PNDa+98DzeX/IZNsX9Ktk1v1+3HsMHDURYG2UaMx05chS1tcqV/w0c2B/Dhg1p0XuaXITW7/mv0AONwp82wCBQs9tpezD0BuPXyvu/3BEqgZPO/nrhpGSnAfq7ebSKHf+NCQwIwLPPPmX0+2vranE84RT2Hz5k0uNQA/z80DM6Gr1jYhDdvVuLkji93oCjJ05g6/Yd2PbnH6gR+JDo2rEjbrtxCmK7d2/ymNTKyirMe/01HDhy1OjrXWnaLbdg2i03SzZeS7y76AOclvlwJz8/P7zw/DNCY5xPTcX+g5fm5/GTJ4X+vZvLxdkZsd27o2d0FPr07AmXFpwlUj8/43bswJ+7d6O8osLoOPz9fPHg3bPQI6rp+QkAX69Zg69WrTb6elfqFBmB915doMjplu+//xFOJSaa/LoA0LVLF8y5526orvo7V+2PCnHv1dD7WudX0ZZQAyoJ7v+tpdyvKekZGUhOTkGokc8htRotorp2QVTXLpg1dSryCgpw6NgxnE9JwbmUFKSkXkCu4Dncnh7uCPQPQHibEHSKiETnjpHw9Tb+QCK1WvVPzFnZWTgqUHJ206Trm70Xws7OFq888wxefOMN7Dtw0OhrXm7ljz9i+KABCPQ37clsuXl5OGOCw2CysrJw7vx5hIeFGT1GWEgIwkJCcPOk61FRUYnDJ47jzLlzOJ+SivOpKUjPzIJerzd6fJ1Oh5CgIISHhKBjZAS6dOiA0JCQZt1wr+Xy+env44MvV60yOraeUVHoFdP8vTpTb74ZNjobfPb110Zf83IJiUnY/NuvGDfCuFUcY+Xn5yMpSb7HU41p0yYEM2ZMv8bNv2lMABqh1+vRdrYnamvEMnj1BS20R8x/B7up7PzrL6MTgCt5eXhgxODB//q9ktJSpKalIb+wECWlpSguKUVJaQlKy8pQWVUFe1s72NjYwNbGBna2trC1tYWvjzcC/fwQ6B8ga7VBnkDLWQAtPhfdRqfDS088gSdffgVHJahPrqmpwTff/YAnHnpQeKyW2LnzLxhMtLt6585dQgnA5ezt7dC3Rw/07dHjn9+rrqlByoULyMnNRWlZ2aX5WVaG0tISlJSWwcHeHhqNBg729tDqtLCztYWbiyt8vL3g6+0FPx9fyTd61hPdN+LcwvkJALfcMAlV1dVYvlqalYBvvvseI4cONemj1p07dymy+9/Lywv33nuP0Ud5MwFogMEA5OcWit/88zXQHuPN/3LxBw5iyuQbYC/Tioizk5NZnh9gMBiQJ7g64erS8h3UOp0OLz/1JB559jmcT00Vuj4A/Pbnn5h6y83w9/UVHqs5amtrsXfPPpNcCwAOHjyIG6fcAAcHB1nGt9Hp0D48HO2buVPblPLyxRIANxcXo9437ZabkZufh82//iZ0fQDIycvD1m3bTLYKUFtXi9179prkWperr/V3MSLpqtf6tqI308XCIlQJtplUlaihibcFjF/ts0rVVdXYuXOX0mGYXG5ePqqrxUqV3N2MK6FycnTES089CSdHR6HrA0BdXR1W/vij8DjNtW9fPIpN2IeguroGf+78y2TXMydpmWKHLHm4G9/bZO49s9EpMkLo+vVW/vCTyaox4vcfQHFxsUmuVa8ltf6NYQJwDcVFJSgrETsNTVWtgna/LVQ1razYv5m2bd9uMQdmSOVcSrLQ+12cneEo8K00wM8PTzz0oCQHK8Vt246cvDzhcZpiMBjw2++mb0e87fftqBFc/bM0VVXVyMgSO2CnvtTQGFqNFs8/9hhcJegTkJWTjd/++EN4nOb4bdt2k1ynXktr/RsdS4J4rEp5eQWKLwp+29ADmv12UJXzr7chFy8W4cABZZtmmNoZgRPnACDQ3084hn49e2LsddcJj1NTW4vvfl4nPE5TTiQkCLXoNVZxSQkOKFzOZ2pnk5OFNicCQICf2GMhb09PPHzPbKEx6q368SfZ942cSDiJ9DTpjqZujpbW+jeGd6jLVFfXoDDvotggBkB72BbqQv7VNmXzli3Qm1HTFLmJ7P4HgCCJdt7fM/1O+Hh7CY/z2x9iJY3NsXnzL7KO35gtv8S1svkptknU1dUVzi0oP2zIwD59MHTAAOFxUtPTkSBzWd4vv2yVdfwrGVPr3xjepf5WV1uL/Jx84YxRc8oG6gzurWyOnOxc7ItvHd+yampqcCJRrEtYO4k2jTnY2+Peu+4SHqe4pAT7ZPyWfOz4cZw/nyzb+E3JycnB3n37Fbu+qR0ROAsBANqHhUoSBwDcO+OuqxoIGSNu+w4Jorm2EycScObMWdnGv1LXLl3wn5tvknRMJgAADHo98nILUFcntvyluaCD5qwyXdIs1cYNm1rFXoBDR48J9ypvHy5NaRpw6VtWTLduwuP8ukOe56wGgwGbNm2RZeyW2LhpS6uYn+UVFTgiWCYaEd5WomgudQu8dcoU4XF27NqFmpoaCSK62kYTnkIoUuvfmFafABgMQF5uIWqqxcv9NMeMq8VszfILCvDXzt1KhyG7HbvF/owajUayFYB602+9VXiMPQcOoFiG1swHDh5CSop4yaKogoIC/Pmn9VcE7NkfL1yhEtm+nUTRXDJlwnihqgLgUk+QPTKsMh48dBjJJupCKlrr35hWnwBcLLgoXu5XynI/Ees3bERpmVjVhTmrrq7GX3vF6oQj27WVZEn0cp0iIxDTVWwVoKamBn/skraks6amBmvXyr/BsLk2btyMMoXPn5Db73/uFHq/Wq1C186dJYrmEhudDjdOnCg8jtTVADU1Nfjpx7WSjtkQKWr9G9OqE4DiohKUlZYLjaGqVkG7j+V+IsrLy7HZDJZ75bJt507hBCeqizxnzd98wyThMQ4cPiJBJP+3Ne5XFEh4kqGo8vJybDDhcq+pZefmYt8hsVbRbUPDWnT+QHONHzlCOPE9ePSopD0B4uJ+Rb4J5qdUtf6NabUJQHl5BUpY7mc2dvy5E+kZGUqHIYufJdjJ3js2RoJIrhbTrRsC/MTKC4+cOAG9RAdm5efnI07CE+Kk8ufOXUi7kKZ0GLLYuDVOuPyvl0zz08HeHtcNHiQ0RnlFBU4LluDWKygowFYJuhU2Rcpa/0avI+voZqq+3E/oI4vlfpLS19VhxYpvYRD8IDI38YcOI+ms2CE2bq6u6BgRKVFE/6ZWqzD6OuOOZ65XXFKCZAlaDAPAylWrUV0tz6YtEfq6Oiz/5lurKwssLSvDz5vFVzf69+opQTTXNnaEeN+KI8ePSxAJsHrN96gW3MzbHJOnTJKs1r8xre7uVVdbh7ycApb7maGUlFRs2yFf2Y4Slq9ZIzxG/169ZD3edEi/fsJjHDkh/gG7Z+8+JCSIlUrKKe1CGn6XsaxMCT9u2IiycrHHoL7e3mgvYQXAldqFhQufPinF/Ny/Lx7HjkmTSDRm4MD+GDZ0qOzXAVpZAnCp3C9fOItnuZ981q/fhFwTtJg1hT9375GkEckYCTr3NSbAzw9tBU+/E60hLyouwQ8m2lglYsOGjcjNzVU6DEnkFxTiu3U/C48zZvhwSdpLN2ZQ395C7z9+8pTQPoCSkhJ8Z4LzL7p2lb7WvzGtKgHIz7vIcj8zV1VVhS+++BJ1esteaq2uqcGnXy0XHqdtWBg6SFxedS29oqOMfq9KpUL/PsZ/QBsMBnyz4luL2GlfXV2DpV98ZfHzEwCWrliBiopKoTE0Go3wI6Tm6BkdLfT+fr16QW1kDb3BYMCKb1aitETe+RkWFoq7Z94lca2/odFnqq0mASgtLkOl4GRnuZ9ppKSkYssW07bYlNqXK1ciK0fsYBUAGD9ypATRNK175y5Gv3fW1KkYMXiw0e/ftn07jgs2oTGl1NRUs2hSJOLgsaOIk+BxW+/YWHh5eEgQUeM6RkTAxsa4L14xXbvh0fvvM3qVYseOP2Rf+vfy8sKce2ZBp5NuZblOX4daGF5o7DWtIgGoralF0cUisUGqVNDus2O5n4ls2vwLTp8R2zynlBOnTuH7deuFx7G3t8PwQQMliKhpnTt0MGqfweTx43HzpOuNvu6FtDT8/LP435WpbfklDklJSUqHYZTSsjK89cFHkhyUM37ECAkiappOp0Nku5bvM4hs1xYvPfUkdFrj9mulp6XjJ5l7Ujg6OuKB++6Fs4S1/gaDAStWrEKPLz5otKSmVSQAxcWlEJrrekAbbwdVOW/+pmLQ67H082UoLBQ8nMnEiouLseDd94TLqgBg2ICBkjf/aYi9vR38fFtWDjhs4ADMmT7d6GuWl5fjs8++sMhjdw16PZYu/cri5qfBYMDbH30syVHOfj6+6CHw6KilwtuEtuj1wYEBWPDss7C3tzPqeuXl5Vjy2VLZWgkDlxKbe++dDR9fb0nH3bhxM/Y2o/mY1ScAdbV1qCitEBpDe5DlfkooLinB50u/QK3MJ85JRa/X49V330W2BJvEdDodbrtRvBd6S4SHhDT7tSOHDsVTc+caXZ2gNxiw7MvlyLPgDZ8lpSX47POlFjM/AWDN2p/x5549kow17ZYbjX6ubozw0DYteu3br7wCV1dXo66lNxjw5Zdfy7oh+VKt/zSEC27AvdKu3XuwaXPzHlFZ/V2trKwCBoGKf+1JG6izWO6nlPPnk7F6zXdKh9EsHy9bhgNHjkoy1sTRo+DrLe23gqb4NbPj2K0BS60AABfvSURBVMTRo/HY/fcLffiv+3k9TpwQOx7ZHCQnp2DlKvFST1PYtX8/ln7zjSRjhQQGYvgg4/d9GMPPx7dZr4to2w5vvvQSPNzcjL7WhvUbZd+XIketf1JSElatbP58tPoEoLJCrM+/+hzL/ZT211+78cvWOKXDaNTy1auxduMmScZysLfHbZMnSzJWS/h4eTX5mttvuhEPzZ4l1Jdg16492GqG3f6MtXv3HmzZIt7tUU5Hjh/H/LfeluTRFADcPfUOaDQaScZqLm8vzyZfE9O1G95++SW4CjxP37V7D7b8Iu8mZDlq/TMyMvHpp0tbdHql1X+1ra6pAZ/cW7516zbA3c0NvWTsOGasr9eswfLV0n0LvHHiBKOXLkW4uTb8jUmn1eK+mTMxYZRYVcKJhJP4dtVqoTHM0foNm+Du4YHeZjg/Dx07hucXLkS1RM+yO0VGoF+vXpKM1RJuTfxMjBw6FA/PuQc2AjvpW/oN2hhy1PpfvFiEjz7+BBWVLXvcbfUJAAwGMAOwfPW1uC4uLujQQZ62uC1lMBjw+YoVWP2TdA1sPD3cJTkBzRh2drbX/H1PD3fMe/xxdIoU+3s/fz4Zn3/+haTtdHU6HUR60EjVdvhSL4OVcHJyQudOHSUZUwq74+PxyltvCx/1W0+tVmH2tGmSjNVS9rbXnp9ajRb3zpiO68eMERo/OTkFn3z6WYu+QbdUmzYhmHHXdElr/SsrK/HR4k9QWFjY4vdafwJAVqO2thaffLoE9993L9qboDlOY6qqqvHa+4vw525pNlTVe/Te+0y28/9KtjZXf8B26dgRLzz+mNDzVABIS8/Ax4s/RVWV2CO5K73x+kKhc9L/++jjqBQ8DrxebV0tliz5HA/cNwftI9pLMqaIH9ZvwKdffSXZsj8ATBwzBl06KpPg6HQ6qNXqf/15PNzd8cJjjwrHlJ6RgY8+/kSyuXAtXl5euO/ee4Tm65Xq9HVY8tlSpKelG/V+q98DQNaluroGiz9ZguTkFMViSE1Px4NPPyX5zX/08GGynarWHPrLutup1Wr854Yb8NbLLwrf/LOysvHB+x+hTPBIZEtQU1ODxZ8uwfnzyYrFUF5RgYXvLcLiZcskvfkH+gdg1h1TJRuvpQwGw796F/SIjsLiN98UvvlnZ+fIPj/lrPU/dcr4duNcASCLU1lZiUXvf4g5c2YhMiLCZNc1GAzY9OuvWLxsmeTfFHy8vHDvXXdJOmZL1f69NB8SFITHH3gAHSX4FpuZmYVF73+IklLBo7ctSGVlFRZ98CHm3DMLHQQfm7RUQmISXn//A6RnSnu0tlqtwhMP3i/pt9eWqtPXwWAwwNHBAXOmT8fo4cOEzyDIysrCovc/QnGJfPNT6Vr/xjABIItUVVWFxYs/xT2zZ6Fjxw6yX+9Cegbe/eQTHJWhNEilUuHR+++Ho4OD5GO3RG1NLW65YRLu/M9/hDZS1UtJScWHHy1uFd/8r1RdVY1PPlmCWbPuNsmegLLyciz79lus27IFer14h78rTZkwAZ07yP9z1piqqmr0iI7Cf++9t1kVK01JTU3FBx/KOz/Noda/MUwAmhAQ4A+tpvWUAmZmZsra+UpK9Y8D7px2B2JlWjovKirC8jXfYePWONk2B906ZQpiu3eTZeyW6N+7Fwb27SPJWCeOJ+DzL5ZJ/szfklRX1+DTTz/D1Km3o2ePWFmuUVtXiw2/xOHr775DUZFgu/MGdO7QATNuu02WsVvC3s4eC597TpKTBxMSTuHzpUtlfeYPyFPrn5BwCiu/laaShglAE+69ZzY8PZuuP7UWhw8fwWeffyFJn3BTqK2txRfLvkJWVjbGjRPbBXylnLw8PPbCPGRkZUk67uUG9u2Du279j2zjt4RUXd127dqDlStXW8WJeaJqa2vx5ZfLkZOdI/n8rK2rxatvvytZZ79r8fX2wUtPPCHpITXGEuk9cbldu/dg5bfyz0+5av2XLl0mWezcBEj/EhXVHdddN0zpMFrEYDBg46bN+PbbVZJ+S/fx8sLSRe/hkXvnwNPDXbJx67ULC8eTDz4k+1nqpmLQ6/Hj2p+x4ptvefO/TP38XPHNt5LOT61Gi3lPPI43Xpwny5HRDvb2eOXpp+DmZvqeFHLQGwxYu3YdVqyQf36aU61/Y7gCQFe5/vqJyMjItLhWrTv/2oXUC2m4Z9ZMuEt0w9bpdBg3YgRGDB6MDXFb8eP6TZIc8+vp4Y75zz7dYO29pSktK8OyZV/h5MlTSoditnbt2oO0tAzMnjUDHhIeoRvTrRtiunXD3gMHsPqntTiaIP5zq1ar8ex/H2lR/31zVlZWhmVffoWEBPnnp7nV+jeGKwB0FbVKhbumT4O3BBttTC01NRVvvPkWzpw5K+m4NjY2mDxuPJZ//BFenzcPg/v1M/qIURcXFyx87jmTnKNuCqmpqXj9tTd582+G1NRUvPHG2zh9WvqjrnvHxuKd+a/giw/ex03XTzS6m6RarcIjc+agd6w8+xZM7UJaGl57/S2T3PzNsda/MU02c553d98XRS5QeSoJImfxfpTsCoNAKz+3GDuhTmEjAkfAQeHd2UrQ6XRoH9Eee/ftQ52EndtMoaqqGnv27UdNdTXaR7SDWiVdnqtSqRDg54vB/fphwsiR8HB3R2VVFfIKCpq1b8Ld1RVvvfwSwttY/jcrg8GA7Tv+wBdffKXYTv/Ro0ZCqzW+J/0vW+NQW2va+V1VXY29Ms1PAHB1cUGPqChMHj8OYSEhMBgMyM3Pa9aphWq1Go898ABGD7Osx4DXYjAY8Neu3Vi69AuUlpbKfj1HR0c8MvcheEj4uNBgMODrFStx5MgRo95/IcDjZWzf3uAHEx8BUIOCAgMwfdpUi9oUWM+g12Nr3K9IOn360mqGDCfrubq64saJE3DjxAkoKinBvoMHsWd/POIPH0ZZeflVr/fy8MAbL72IkMBAyWMxteKSEnz99TcW95jIXNTPz8SkJNw1fRp8fJp3EmNL6LRaDOnfH0P690dNTQ2OHD+B3fHx2BN/ANm5OVe9XqPR4Km5D2HogAGSx2JqJSUlWL7iG5w4bpr5ac61/o1pTgJQAqFu+gYn499LSouK6o7rhg9F3K+/Kx2KUZKTU/DqgtcwduwYjBg+TNLncpdzdXbGiMGDMWLwYOj1eqSmpyPx9GkknjmDU6fPorSsFK89/xwC/P1lub4pHTx0GCtXrUGZCb5VWbuUlFQsWPi67PNTp9OhR3QUekRH4cFZdyM3Px+nTp9G0pkzOHX6DM6mpOCROfdgYB9pykCVZOr5Wf/I1Fxr/RvTZAKg7vOOi8gF8h5vWwHATmQMUtak+k2BCSeVDsUo1dU1WLt2HY4cOYo7br8N/v5+sl5PrVYjNDgYocHBGGUFS6n1cnNz8e23q5GYlKR0KFalfn4ePnwEt99+KwIDAmS/prenJ7w9Pa3ihl8vNy8PK79dhVOJpp2fk2+8AVFR0tb6m+JUQoCbAKkZVGo1pk+fBi8L3BR4ufPnk7Fgwev49ttV/PbaAtXVNdi4cTPmv7qQN38ZJSenYOFrb3J+ttA/83P+QpPf/IcNG4JhQ4ZIOmZGRiY+/XSprKcS1uMeAGoWR0dH3DNrJt58+x3JjlBVQp2+Djv/2oXDR49iwrhx6N+vD9Qa4zeRWTO9wYB9+/bj55/Xy9Zljv5NX3dpfh46chQTxo/FgH59OT8boDcYEL8/Hmt/XoeLF00/P7t27YIpN0ySdEw5av0bwwSAmi0wKBC333Yrln25XOlQhJWWlGLlqtXYujUOo0aPRP++fWR7/mppDAYDjp84gQ3rN+FCWprS4bRKZaWlWLVqDeK2/opRo0eiX5/eTAQucyoxCWt/+hmpFy4ocv02bUIwc8ZdFlHr3xgTJACGIwaDWmQPgLQPV+h/7d1tkJXleQfw//I24oJC2RWrYGS1iQHTCArYiDWamVRjO7HGKrGdaRXQ2HbapDHmq586Y3W006lNRBFBfIuNGiNvagl0AqJp5B0VZGlhhV0RqCKwVtjTD6jJtHGB3efsOWf395vZLwx7cS/cw3Wd576u++mWiRMvyH9t25YlS5ZWeimF2L1nTx599PEsWbI0V1z+1Zw/YXyf/Y+2o1TK2jVrs3DhYom/Svxqf/4sl//BV3P+BRPSv1/f3p+LFr+Qbdu2VWwdH8/6DxpU3PXI5Zz170zZC4CGO5u71WXSOHF0bc2f9QHf+OOrsnNna6+6+KW1tTWzH5qbHz/1TC6eclEuu+zLGTx4cKWX1SMOHTqUX766KosXPZ/Wtu7fckjxWlvb8tCch/P0089kypQpufTSS/rM/SSf7M/Fz6e1tbL7s76+Pn/9l7dk6NChhcUslUqZN+/xvP76G4XFPFaOADhudf365YYb/jx33HFXdu/eXenlFOq9997L/AUL829LluSC88/P5Asn5aympkovqyxa29qy8qWXs/yllZrOasS77+37ZH+e98UvZtLkSTnnc5+t9LLK4uP9uWLlyry/r/L7s1Zn/TujAKBLhnzUFHjX3ffUdFPgp2lv/yA/X74iP1++IqNHjcrkyZMyfvx5GT58WKWX1i3v7duXVa+uziu/+EW2bv3PSi+HLmpv/yArX34lK19+JaNGj8rkiRMzYcJ5GT68+JdW9aR9+/Zl1arVeeWV/0jz1q2VXs4nannWvzMKgKPYs3dvzd2C15n6IfUZfEIxj7ZHjR6VqVOvy9y58wqJV622t7Rke0tLnnrq6YxpGpMJE8bn3HFjy3K7YDns2bMnGza8lldfXZVNb76ZUkdHpZdEgVq2t6Rle0ueevqZNI0Zk/Hnn5dzx44ty+2C5bB3z96s37gxq15dnTc2b67K/VmOWf+NG1/PY48+UWjM46UAOIp7/vGfkt6T/3PKyMZ8/7ZbCysCLpw8Kdu3bc/Pli4rJF416yiVsmVLc7Zsac6TT/44jY2NGTdubM753O+kaUxThgytjksvDxw4kOatW/PGG5uyYcPGip+b0jNKpVK2NDdnS3Nz/jVPpbGxMWPHfj6fP+ezVbU/Dx48mC3Nzdn0xuas37Axra2tlV5Spy67rDyz/rNmza74a7MVAH3M2227Muehebnp5unpV9B76L9x9VVp2bEjmzdtLiRerdi1a1eWLl2WpR8VP6eOHJmmpjEZPXp0Tjv9tzPq9NPL3kjY3t6eHTt35q23dmT7tu1p3ro1rTtb09GLnlrRNbt27cqyZbuybNm/J0lGjjwlTU1NOeOj/Xn6aaeVvZGwvf2D7NyxMy073krL9pZsaW6uqf3ZG2b9O6MA6IPWrluXhQsW5corrygkXr/+/TNj+o29sinweLS2tR3pon9p5Se/Nnz4sDSMaMiIEb+VEQ0jMnz48AypPzH19UNSP6Q+Jw4enAEDBqSuru6TYuFg+8GUOkr58NDhtB88mP0H9mf/+/uzf//+7NmzJ7v37M07u3dn9zu7s7eXHVEdv+797H3pr66t7e20tb2dl/7P/hwxYkQaRow4sj+HDc+QIR/tz/r6nHhi1/bn7t17svudd2r6CLW3zPp3ppiPgGXUOPHSbu2fz0wf1q3XAQ+aX9+rjgA+VldXl+nTbsz48cWda21vacldd92TDz/sfU2BQN/R0NCQ7936nULH/Q53HM699/6wR8f9Vpx/dv/cfvunNlW4+qyPOvKe6XmFnr+NHjUq118/tbB4AD2tt836d0YB0Ie1t3+Q+2Y+UOhZ1ORJE3PJJRcXFg+gp/TGWf/OdLsHoPXW363vN+Rw2Y4Sxs0vV2SSI+eCRTcFXnPN1dmxY2c2b36zkHgA5dZbZ/070+0CYEDd/neyP925679TdSmlVP2tCjVt7bp1WbRwUb72tWKaAvv3659p027IHXfcmb17/7uQmADlVI5Z/02bNuXxx35UaMwiOQIgSbJgwaKsW7++sHgnDR2am2+ekYEDi3thBkA5fOUrl5Zl1v++mbNy6PChQuMWSQFAkiOX3MyePafQpsAzRo/ON795XWHxAIr2hS+cm6uv+nqhMd9996NZ/4OVn/XvjAKgyg0YMCADB3b963iUoynwwsmTcvHFFxUWD6AoZ575mbLM+v/zv1TPrH9nXARU5e6++x8yoH/X/5n+9tt/lw8/PPZHUG1tb2fOnHm5+abpqSuoKfDaa69J6862bH5TUyBQHRobGnLLt27KoEHFHVMe7jicmffPylstbxUWs5w8AeD/Wbt2XRYter6weP379c+06Tdk2LCTC4sJ0FX1Q4bkr8ow6//II9U3698ZBQC/0fz5CwpvCpwxfVoGDPDQCaicgQMH5pZvzSh+1n/BoqxcWX2z/p1RAPAb/aopsLg3yY0Zc2b+9HpNgUBllHXWf8HCQmP2BAUAn+pIU+D9xd4UOHlyplz0pcLiARyrvjjr3xkFAJ36uCmwyDd6XTf1T3L22WcVFg/gaPrqrH9nFAAc1dq167J4ccFNgdNu1BQI9Ii+POvfGQUAx+S55xZk/YYNhcU7+aShmTFNUyBQXn191r8zCgCOSUeplAcfLLgpsOnMXHPN1YXFA/h1Zv07pwDgmLW3t2fmzAfS3t5eWMzfv3hKLrro9wqLB5CY9T8WCgCOS2tbW+bMLbYpcOrUa3NWU1Nh8YC+zaz/sSmiANif5EAZv6gya9aszeLnXygsXv9+/TNjxo05+WRNgUD3mPU/oi5Znttv7/STWrc7sBru3NLQ3RidaZx4RnEfNSnMcz+dn9GjRmXcuLGFxDvppJMy7ca/yH33z0qpo6OQmEDf84dXXlH4rP9rr72exx59otCYZVXKivQbdEWS8hYA9E0dpVJmPzQ337/tu2lsLOYx29lnn5U77/j7QmIBFGHHjp15YNbsHO44XOmlHJtSVtT1G3T58mcf3He036oHgC47cOBAfvCDmYU2BQJUi5qb9T+O5J8oAOimcjQFAlRazc36H2fyTxQAFGDNmrV5/oUXK70MgELU3Kx/F5J/ogCgID999rlsWL+x0ssA6Jaam/XvYvJPFAAUpKNUyuw5c7Nr165KLwWgy2pq1r8byT9RAFAgTYFALaupWf9uJv9EAUDBWtvaMvfhRzQFAjVl06ZNefyxH1V6GcemgOSfKAAog9Wr12gKBGrGjh07c9/MWTl0+FCll3J0BSX/RAFAmWgKBGpBTc36F5j8EwUAZaIpEKh2NTXrX3DyT5K6ogKVS+PES7t1nPyZ6cNS142fctD8+qPcplx+dd34ASp9Fn/qqSNz2/e+mxNOOKGi6wD4dYc7Dufee39YG+N+ZUj+iScANaFUKnX5q9JaWzUFAtWlpmb9y5T8EwUAPWD16jV58cUllV4GQJIamvUvY/JPFAD0kJ/85Nls2KApEKismpn1L3PyT7wOmB7SUSrloTkP5zvf/psMG3ZypZcD9EFbmpvz2KNPVHoZR9cDyT/RBHhU1dAECEAf0UPJP3EEAADVoQeTf6IAAIDK6+HknygAAKCyKpD8EwUAAFRMXbK8Esk/UQAAQEXUJctTN+iKSiT/RAEAAD2u0sk/UQAAQI+qhuSfKAAAoMdUS/JPFAAA0COqKfknCgAAKLtqS/5JDRQApVI6Kr0GAOiqakz+SQ0UAABQq6o1+ScKAAAoi2pO/okCAAAKV+3JP0kGVHoBPWBv9955XBpeA29NBqBK1ELyT/pAAfDLx/eekqVLD3X1+7/0R3/2P0kGFrgkAHqpWkn+iSMAAChELSX/RAEAAN1Wa8k/UQAAQLfUYvJPFAAA0GW1mvwTBQAAdEktJ/9EAQAAx63Wk3+iAACA49Ibkn+iAACAY9Zbkn+iAACAY9Kbkn9SGzcBvp+kf5e/u7Gx1M0/f2/cBAjQ160aeMIHX1/65Lz3K70QAAAAAAAAAAAAAAAAAAAAAAAAAAAAAAAAAAAAAAAAAAAAAAAAAAAAAAAAAAAAAAAAAAAAAAAAAAAAAAAAAAAAAAAAAAAAAAAAAAAAAAAAAAAAAAAAAAAAAAAAAAAAAAAAAAAAAAAAAAAAAAAAAAAAAAAAAAAAAAAAAAAAAAAAAAAAAAAAAAAAAAAAAAAAAAAAAAAAAAAAAAAAAAAAAAAAAAAAAAAAAAAAAAAAAAAAAAAAAAAAAAAAAAAAAAAAAAAAAAAAAAAAAAAAAAAAAAAAAAAAAAAAAAAAAAAAAAAAAAAAAAAAAAAAAAAAAAAAAIr1vyISbFk1Xx+uAAAAAElFTkSuQmCC;" vertex="1" parent="1">
          <mxGeometry x="120" y="1040" width="590" height="590" as="geometry" />
        </mxCell>
        <mxCell id="fqI5ldCcdi-MGiuDYPDE-3" value="" style="shape=image;verticalLabelPosition=bottom;labelBackgroundColor=default;verticalAlign=top;aspect=fixed;imageAspect=0;image=data:image/png,iVBORw0KGgoAAAANSUhEUgAAAgAAAAIACAYAAAD0eNT6AAAABHNCSVQICAgIfAhkiAAAAAlwSFlzAAAOxAAADsQBlSsOGwAAABl0RVh0U29mdHdhcmUAd3d3Lmlua3NjYXBlLm9yZ5vuPBoAACAASURBVHic7N13lBzXfS/4762qzpPzYCIwg5xJgJkiqWdbIkgQIPxomyvRWok2dew9x7tP0lqUtW89Xuegs/bus4+tZ+lZMh30uCIJkQT0ZMmkRDEPgCFBgMiYiMl5Okx3Vd39A0GIxMz0raru6u/nHPzT6L71m66uut9K9wpQ1rq/v6deM+XnIOyHAbEcQDmAEQCdEnhutLbmX7dt+3rG4zIBAN0v7bpLg/g0BO4H0Hzh5V4Ar2hC+8fGHc+95V11P9PZ+VSgemT4cSHFHgC3AqgBMAnIs5DaS7Yhvtn6yecGPS4TANe/E7j+ncH1T5cTXheQz6SE6N23+2kB/B8Aoh/x1pOQ8snmh/e+5lZtVzv34s4qUze+ASkfuclbXzBs69eX7XxxzJXCrqNv36P3SVv+PQTaP+JtcQnxB807nv9TISBdK+4yXP/O4PpXj+ufrocBYIlkR4fWt73rGQCPL/AjaQj5q8079n7Hybqu5+z+3a26jX8HsHyBHzljQvv4ioee63GyruvpfXn34wC+BSCwwI/8c9O7W54QHR22g2Vdg+vfGVz/6nH9041oXheQr/q3H/pDLHzjB4AgJP6h78XdtzlV0/Wce3FnVLfxPSx84weAFQbsvX3//bGIU3VdT/+Lj94J4L9h4Rs/APxPfdu7fs+hkm6I6189rn/1uP7pozAALMHA/kdWS4gvLf6TIiw1fF12dLj2vZu6/kUAG5fw0c12LPO/qa7nRmRHh2br8r8ACC3h41/p2bdrneqaboTrXz2uf2dw/dNHYQBYAsvSfhuAscSPb+7bdujnVdZzI52dTwUg8Z+W+nkh8MXOzqcWk8aXrP+2rk9A4pYlflyH1Jb8dy4W1796XP/qcf3TzTAALJLs6NAgcLMbaW5C7FJTzUerHh35GM7fkbw0EpV1Q0P3qKvoIxYls/1O5CNuHFlx/TuD6189rn+6GX5hi9Rzx/u1AKqyakRgg5pqbsLOfjkSmju1ws5qOQKoObv1YLWqam6E698pXP/Kcf3TTTAALJKRkTUKmqlV0MZNCSmyrlVC1Kmo5eZE1htvUNMdr5Xr3ylc/6px/dPNMAAskiXkUq/9XU5FGzclNOi50MYCZf2dKFo3biyD6/9aXP+Kcf3TzTAAEBERFSAGACIiogLEAEBERFSAGACIiIgKEAMAERFRAWIAICIiKkAMAERERAWIAYCIiKgAMQAQEREVIAYAIiKiAsQAQEREVIAYAIiIiAoQAwAREVEBYgAgIiIqQAwAREREBYgBgIiIqAAxABARERUgBgAiIqICxABARERUgBgAiIiIChADABERUQFiACAiIipADABEREQFiAGAiIioAAmvC3DT+lf+uiiQMn8RwA4BLJdA5WLbCMIOVSDdkE0dlhCZURnqy6aNhSgRZkVUmmXZtJEQxtSMNCZU1XQj1WK+SZcykE0bEwgOpKHNq6rperj+ncH1rx7X/8IIYFwCZwHss7X0//f+J/73eDZ15JOCCQC3fP+vPitt/DEEar2uhYiIctKQhPhK14O/9Q9eF+IG/weAjg5ty+3l/48A/hevSyEiotwngb/uenvyt9DRYXtdi5P8HQA6OrStt5d/E8BnvC6FiIjyyr+2z9Z/+tlf+iXL60Kc4t8AwM6fiIiy4+sQ4M8AwM6fiIjU8G0I8F8AYOdPRERq+TIE+CsAsPMnIiJn+C4E+CcAsPMnIiJn+SoE+CMAsPMnIiJ3+CYE5H8AYOdPRETu8kUIyO8AwM6fiIi8kfchIH8DADt/IiLyVl6HgPwMAOz8iYgoN+RtCMi/AMDOn4iIcktehoD8CgDs/ImIKDflXQjInwDAzp+IiHJbXoWA/AgA7PyJiCg/5E0IyP0AwM6fiIjyS16EgNwOAOz8iYgoP+V8CMjdAMDOn4iI8ltOh4DcDADs/ImIyB9yNgTkXgBg509ERP6SkyFA87qAq91ye/n/C3b+RETkH79ysnjwr7wu4mo5dQbglu//1WelxDe9roOIiEg1CfHZrgd/6x+8ruOinAkA61/566JgyjwJoM7rWoiIiNSTI4n0fPvxXV+e9boSIIcuAQRS1n8EO38iIvItURMNhB71uoqLciYAAPJBrysgIiJylBA509flTAAQQJvXNRARETksZ/q6nAkAAMq8LoCIiMhhFV4XcFHOBACZQzckEhEROSGX+rqcCQBERETkHgYAIiKiAsQAQEREVIAMrwsgcpsA0BAswapwJRqCxSg3wohoQWg5c2WOnGRLIGmnMWEmcS4zhxPJcQykZyC9LozIZQwAVDDK9TB+vrQNdxc3oSoQ9bocyiGjZgKvz/bh36ZOY8pKeV0OkSsYAMj3onoA/7FiHT5eshwBwatedK1qI4rd5avxUNlK/Gj6DL47cRQJ2/S6LCJHMQCQr22I1OA3a7ej1Ah5XQrlgYDQ8Mmydtxe3Ii/GX4XRxOjXpdE5BgeDpFvfbK0HV9edjc7f1q0cj2Mr9Tfg18oy5lB24iU4xkA8qVfrFiLPRVrvS6D8pgmBD5TtRlFWgDPTRzzuhwi5XgGgHxnDzt/UugXK9bhVyo3eF0GkXIMAOQreyrW4hfZ+ZNiO8tXMQSQ79zwEoDs6NB67ni/1sjIGktIxy8VPAY7lGEeoSyw8ycn7SxfBQD41/EPPK6E8lkQdqjnpd23Or0cXQrTDIiRlrc2DYuODvt677lm6JOefbvWCVt8EQKPAKhyusiLntLuxDDCbi2OfIadP7nlxckTDAG0ZLVI4ev2m24uchTA9yxb/4vlO797xc0slw65ZUeH1vvy7j8SUrwPgc/Bxc6fKBvs/MlNvBxAeaYawJO6Zh3u3bfrD2RHx6V+XwMAKSH6tnc9A+ArAHSPiiRaNHb+5AWGAMpDBqT4au+2Q9+W8vzZfw0AevftfhrA456WRrRI7PzJSwwBlI+EEJ/q3/folwBA6/7+nnoBfNXroogWg50/5QKGAMpHEvJ3u7+/p17TbPvXAMS8Lohoodj5Uy5hCKA8FNNs67OaBB70uhKihWLnT7mIIYDyjZDiIU1IrPS6EKKFYOdPuYwhgPKJDbRrAIq9LoToZtj5Uz5gCKB8IYBSDcCw14UQfRR2/pRPGAIoTwxqAA56XQXRjbDzp3zEEEB54KAmgee8roLoetj5Uz7bWb6Ks1JSzhJCPKc1R6f+BcCHXhdDdJEA8HjVRnb+lPd+sWItPlO1GZq4ZtoVIs9I4HhjZPI7mnjgVRNSfh5A2uuiiEr0EL5UfxceLuPDKeQPv1DWhi8vuxulRsjrUogAYF5K+TnxwKumBgDND+99DUL+KiBTXldGhUkTAh8vXY4/a/45bInVeV0OkVIbIjX4k6afw30lLTwbQB6SKSnFE60P730DuGo64L4Xd98mNfwNAMfnKr4apwMuTEVaEHcWN+LBsnbUBoq8LofIcUOZOeyfOok35/oRtzJel0Mu82A64Is6Afs3mh/6XufFF66JolJC9O3f/fOwsRsCGwDUAjCcruxJ/a6mMRkKOL0cr8X0ACJaANq1X73vGdAQ0QxUBWJoCBZjTaQKq8OVMIR28w8T+UxG2jiZHMex1Bj607MYy8SRtE2YsL0uzXU2JBJ2BokCCERVYj7zDeuNPhcWZeL8Y/6HJcQLzTue/6EQkJe/IWd6oS37/+q0AFZ4XYdKmhBYG6nGlmgd1oQrUR8sQkTzfcYhIlqSpJ3BucwcjiXH0JUYwrHkGGwpb/7BPCKBM10P/q9tXtcBuHBkX4hCwsDPlS7HJ8vaUGFEvS6HiCgvRLQA2kLlaAuV46GylRg3E9g/dRo/mjmDtG15XZ7vMAAodlusAU9Ub0KFEfG6FCKivFZpRPHpqo3YUdaGb429j865c16X5CsMAIoEhIb/uXoL7i9p9boUIiJfqTCi+E91d+Dfp8/i22PvISML7z4JJzAAKBDRDHyh/k6si1R7XQoRkW99vHQ5aoNF+L8H30TSNr0uJ+/x9ussBTUdX6q/i50/EZEL1keq8cX6uxDg00NZ4zeYpc9WbcGaSJXXZRARFYy1kSp8rmar12XkPQaALNxV1IiPlbR4XQYRUcH5WHEL7ihu9LqMvMYAsERRzcCnqzZ7XQYRUcF6omoTIhpvZVsqBoAl+oXSNk7uQUTkoTI9jF8ozYkxdfISA8AS6BD4RFm712UQERW8T5S1Q8+dQW3zCgPAEmyO1aFE59E/EZHXSvUQNkU5g+hSMAAswVb+2IiIcsbWolqvS8hLDABLsCbKx/6IiHLFmjDHYVkKBoBFMoSGukDM6zKIiOiCumAR7wNYAgaARSrXw9D4tRER5QwdAuUBTsC2WOzJFims85lTIqJcw/EAFo8BYJEMfmVERDmH++bF4zdGRERUgBgAiIiIChADABERUQFiACAiIipADABEREQFiAGAiIioADEAEBERFaDrjpzQ2flUoHpo+D4IbZ2QqBUadKcL+ZQwK2YlB3IgIiL/KhFmRd++R//E6eVIG5YUGIYmj4xW1/xk27avZ65+zxU97rkXd0ZNTf8Chke+ACHKAQkIQEqnSwWi0sTs9fMIERGRL0SlWSal/LLjCxI4PzuCDdQMj0z07tv1NcOy/3LZzhcTF99y6RLA2f27W01NfwvA7wMod7w4IiIickMFpPhDU9PfOPPynpaLL2oA0P/co5W6jR8C2OhZeUREROSkzQbsVwf3PVYNXAgAdhjfBNDmaVlERETktNaMzPwtAGjdL+26C1I+4nVFRERE5Io9/fv23KFpAk94XQkRERG5x5bWpzUB3O91IUREROQm8YAmpWj0ugwiIiJyjwSaNCngwlP+RERElCsEIDUB9HtdCBEREbmqXwPwitdVEBERkXukwI80zRbPeF0IERERuUZqUv6T1rjz+TcBvOB1NUREROQ8IcV3mx7a+7YGAEIPPAmJU14XRURERI46q0vzN4ALQwE3ffLZCU3THgBwwNOyiIiIyCnvWRo+vmzni2PAZbMBNu54rl/EA/dK4HcgMO5dfURERKSMwLiU8mkRD9y5/MEXui++bFz+nqZfejYJ4I/lK/f/+UC85F5L6BuFRK3QoDtdX0IYn4dEmdPLISIi8kpCGFNCiL9zejnShiUghwTsDxqiM6+JB141r36Pcb0PXnjjK3DxEcEt++9/TIABgIiI/GtGGhNNO55/2us6gMsuARAREVHhYAAgIiIqQAwAREREBYgBgIiIqAAxABARERUgBgAiIqICxABARERUgK47DgDlJyklEokUkql5mKYJy5IAZJatCui6QMAwEA6HEI2GIYRQUe5HkhJIzc8jmUghnTFh2fb5F4lynRDQNQ3BgIFINIxIOOTKYv20/ZM7GAB8Ipmcx+TULCzLUtyyhG0DmYyFRHIe0zNxlJcVIxJxbqeWTmcwMTmLTCbj2DKInCNhWzYyGRPxRArBoIGK8hIEAgHHluin7Z/cw0sAPjA7G8fY+JQDG/+1LMvC2PgUZucSjrSfTM1jZGySnT/5RjptYnhkEsnUvCPt+2n7J3cxAOS5RCKFqek515c7NTWLZDKltM1MJoPx8WlIm6f6yV+klBgfn0Ymc81w7Fnx0/ZP7mMAyGO2LTE5NevZ8icmZ2Er7Kwnp+YgeZ2ffEpKiYnJGWXt+W37J/cxAOSxeCIJ27Y9W75t25iLJ5W0NZ9KY34+raQtolyVTmeQUvQ799P2T95gAMhjyYT3p+BSiq5rOnV9lCjXJJOKthkfbf/kDQaAPJZWfD1xSTWk1dysp6odolyn6j4AP23/5A0GgDwlbZkT18ullEpu2rM8PJVJ5CYVd+v7bfsnbzAA5CmhiZwYkEMIAaFlX4eu8adIhUHX9azb8Nv2T97gXjePGUb2O5JsBQJqajACHJOKCoOhq9nt+mn7J28wAOQxt4YY/ShhRTVEwkEl7RDlunAkrKQdP23/5A0GgDxWVBT19DSgEAJFsYiStiKRcE4c0RA5yQgYiCoaRtdP2z95gwEgj+m6hpKSmGfLLymJKbmeeVFZWTF4NZH8SgAoLy1W1p7ftn9yHwNAnispjiEWVXNKcTGi0TBKitXufCLhEErL1O0giXJJaWkxwoovdflp+yf38c4rH6ioKIVuGJidnXN8xlwhgOLiIpQ6dORRXBSFrmuYnJzhMKPkC5qmobysBNGoM9fL/bT9k7sYAHyitOT8kcDsXAKp5DxMxTODGbqOcCSE4uIoDIdP+0UjYYRDIczOJZBMppRPoELkhkAggGg0hKJYFJrDj8r5afsn91wTAGRHh9Z/W9cnpBS7IOV6CNQCcHyNPynmm8Yk7yjNhmHoKC8rBsqKIaWEZakZXEfXNddvNtI0gdKS2KUjDdOyAJ4QoHwg4Ekn6aft38+qxXxT78u7T7uwKAsSwxDiCKT9fFPn1n8THR1X/CiuCAD9Lz56Z6/W9TdCYgsg4eYdWXoOjGrlJ0IIX91Vz6MOooXz2/bvJ7qUAQArXFmYwEpA3gMhPt93W9fBvpd3/WbTQ3vfvvjfl24C7H159+O2Jl8RwBZXCiMiIiJ3SNwiIX7cu2/XL198SQOAvn2P3gfgWwB4Dp6IiMifQpDi2z37H70HALTOzqcC0pZ/DyDgcWFERETkrKCw5Tc6O58KaNUjw49DoN3rioiIiMgVq2qHRn5ZE1Ls8boSIiIico/UxB4NwC1eF0JERETuEVLeogGo8boQIiIico8E6jQAM14XQkRERK6a0qTAKa+rICIiIjfJU5qwxctel0FERETukdBe0tIB/FcJzHpdDBEREblAYs6G8Q9a+yeeHwHEH3ldDxEREblB/t7yh54d0gCgecfzfwrgnz2uiIiIiBwkgWeaHtr7NeDCXABCQDa9u+UJAH8AgJOvExER+UtGCvl/Nb+75TNCnJ9c/dJ0wBfmCf7PA/sfeca09S8B8hHBMQKIiIjylgRGIOVeXWh/0bjjhRPA3kv/Z1z95oYHv3ccwK9Liae69z1WG7DNWkvIa96n2gSCewE0OL0cIiIir0wgOCAldjm9HF0KM6MZw607nh2+eMR/tRt27Oc/8OwQgCHHKrzMlv0PzAs3FkREROSRNLT5lodfOOB1HcCFewCIiIiosDAAEBERFSAGACIiogLEAEBERFSAGACIiIgKEAMAERFRAXL8+X6iq9m2hGmayJgmLNOEadqwpQ3DMBAwDBiGDsPQoeu616XmnHQmg2QyBdO0IKV90/cbunHpuwwYBoxA4W3yUkokEknMp9MwDB2RcBiBQMDrsjyVSs0jmUoBACLhMMLhkMcVkRcKb29ArkokkhifmMTsXBxzcwnMxRNIJJKQ8rrjUlwhHA6hKBZDLBZFcXEU5WVlKC0pghCFM2KEaVkYHBzB8MgYJianMD+fzqq9gGEgVhRFLBpFcXEMpcVFqKgog2H4b1cQTyRx6nQ3hoZHkU5nLr0uhEB5WSlaWxqwrL62YH5PpmniTHcf+geGEI8nrvi/olgUjY31WN7aBIPBu2D4b6snT5mmieGRMYyOTWBsfBLJZGrJbaVS80il5jE2PnHpNSNgoLKiDNVVFairrUHEp0cu8/NpnD7TjZ7eczAtS1m7GdPE1NQMpqZmLr0mhEBZWQkqK8tRV12F8vJSZcvzytnuPhw9dhK2fW3QlFJiYnIKE5NT6O4ZwK23bEQ4FPSgSvdMTE6h8+DhGwbIuXgCx46fRnd3H27dugkVFfn/G6CbYwCgrEkpMTk5g/5zgxgYGFLaYV3NzJgYHh7D8PAYjhw9ifKyUjQ21KFhWa1vjmK7ewZw7PgpZEx35uU6v/6mMTk5jVOnuhGLRdHYUIfGhnpEI2FXalDp2InTOHmqe0HvnZicwk/feBf33LXdtyFgZHQC7x7oum4YulpqPo033zmA27ZtQXVVhQvVkZf8scckT1iWjb6+AZw625vVkf5SXX4kd/TDk2hpXoYVK1rzdkdumiYOvncEw8NjntYRjydw/MQZHD9xBjU1VVjZ1oKK8jJPa1qoweGRBXf+FyWTKRw4eBh333mrM0V5KJlM4UDX4QV1/hfZtsSBQ4dx3713+PYMG53HAECLZpomunsHcOZsb9bXpFUxLQunz/ahu2cATY31aG9rQSQS8bqsBUunM3j73UOYmp71upQrjIyMYWRkDFWV5VjZ1oqqHD4qtG2Jo0dPLumzE5NTGBgcRkN9reKqvHX85BmYmcWfScpkTBw/cRpbNq1zoCrKFQwAtChDI6P44MgJT474F8KybXT3DqBvYBDtK1rQ1tYKXcvtp11Ny8LbnV051/lfbmx8EmPjk6itrcKGdatz8tLAyOg4Eln8Lrt7+nwVADKmiYFzS5/LrX9gCBvWrirIJ0cKBdcsLUg8nsTho8cxOjrudSkLYlk2jp88i76BIWxcvxo11ZVel3RD7x8+dsVNeblseHgMY2MTaF/Rgva2Vmg5FK5GsvxtTk7OwMyYvunwxsYmFnXq/2pSSoxOTKC+tkZhVZRLcmfrpZzV1z+IH//07bzp/C+XSCTx9rtdOPTeUVgO3py4VH39g1kdpXnhYrh67fVOzF31OJmXEonsapFSIpFKKqrGe/FE9n9LIp6bZ/pIDQYAuiHTNHHw0Afoej83O8/F6B8YxE9efxezs3GvS7kkY5o4euyU12Us2czsLF57/V3050iAyWQyN3/TTaTns28jV2TSCr6PdG7c40POYACg65qbi+Mnr7+DgcFhr0tRZm4ujp++8S4Gh0a8LgUA0N3dn/c7WNM0cajrCN4/fGxBgzvlvMIYE4gIAAMAXcfU1Axef+sA4nH/nA69yLQsdB48jDNnez2tQ0qJsz19ntagUk/fADoPHIZl3Xx4YiLKDQwAdIWxsQm8+c6hK4ZO9aMjH57Ehx6efh8dm8iZRyhVGRoZxVvvHEJmCY+dEZH7GADokuHhMbz1bhdMl0ag89qpMz04emxpz41nazgPb6hciInJKbzx1sElPXtORO5iACAAwOTUNA50feCP67iLcPpML06f7XF9uZOT064v0y0zs7N458B7vBxAlOMYAAizs3G8/W5X3t/pv1RHPzyFvv5zri5zbi53nkZwwvjEFA4eKrxASZRPGAAKXDqdxlvv8rrte4ePYWx80pVlZTKZgghbQyOjOPKhN5dYiOjmbjjklezo0HrueL/WyMgaS0jHh8Z6DHYowzziKiklDnYdQSo178nyDV1HMBiAbugQ0GBZJjIZE2kFz3MvlpQSh7qO4L57b0Mw6OxkQqaZfecvhEBpSdFN35cxTVimhfl0xpOj8bPdfaiqKEddXbXryybKRUHYoZ6Xdjs+85QuhWkGxEjLW5uGRUfHda/HXdOx9+zbtU7Y4ot9ousRzUKVrbnzaGwF0hhG7o0v7menT/dgdGzClWUFDAMVlWWorqxAaUkJYkURhG7Q0ZqWhfhcHDOzcYxPTGJ0fBIpF+YeSM3P42DXEdy+fQuEcO5XbyvoiA1Dx71337bg90spkUgkMTeXwPjEFMYnJjA9M+dKKDh0+CjuK709J+cPIHJbBdINQqDT6eXYQkKzJPq2d432vrz7e5at/8Xynd89dvl7LgUA2dGh9W3v+gNI/DYEdKeLI29NTk7j2Mkzji5DCIHamko0NSxDTU0VNG1hnaqh6ygtLUFpaQmaGusBnK+3f2AQA+eGkXHwKYXRsQmcPtuL9hUtji3DC0IIxGJRxGJR1NZWAQCSqXkMnBtCX98g5uLO3ZNgZkwcOHQY99y5zdFgRUTXVQ3gSV2zPtO7b9efNr2z9f+8eEbAAAApIfr2dT0D4HEvqyR3SCnx/gfOjdwmhDg/Je+KVsRiaqbkLS8vRXl5KdasaUd3dz/OdPc6NlbBiZNnsKy+1vdHrJFw6PyMicubMTQyipOnejA97cykRFNTM+juGcDy1kZH2ieimzIgxVd7tx1qlRJPCAGpAUDvvt1Pg51/wThztg8zs3OOtF1ZUYb77rkdmzeuVdb5Xy5gGFjZ3or/cN9dWN7S5MgRpWXZeP+DYzd/o08IIVBfW4OP3b0dWzatu+GlmWwdO3EKKZ8NfkSUb4QQn+rf9+iXAEDr/v6eegF81euiyB2p1DxOnDqrvF1d07Bpw2rcdcetKC6OKW//akbAwIb1q3DX7bci7MCR+ujoOIaHx5S3m+uaGutx38duR211lfK2TdPChx4NvEREPyMhf7f7+3vqNc22fw2A83tsygnHT55RPtJfNBrBPXdvQ0uz+6d3KypKcd89t6G6ulJ520ePnSrI59hDwSBu274Za9e0Kz/D0j8whOmZWaVtEtGixTTb+qwmgQe9roTckUzNo39gUGmbxcUx3H3HrSgpLlba7mIEAwHcvm0zmpuWKW13Lh7H4OCo0jbzSfuKFmzbuhG6pvbx3JOnupW2R0SLJ6R4SBMSK70uhNxx+nQPbFvdEW1ZaTHuvnMbwuGQsjaXSgiBzRvXorWlQWm7J8+ov1yST+rqqrH91k0LfoJjIYaGR30/EiJRrrOBdg2Ad4du5Jr5dBq9Coe7LYpFcdv2LQgYjo8RtSgb1q3GsvpaZe3NzMxhaKRwzwIAQHV1JbZsWq/scoCUEidPuz//AhH9jABKNQDDXhdCzusfGFY2/Kxh6Lht2xbH7hbPhhACWzevQ1mpulzb2+PuPAG5qGFZLVatXK6svXODwwU//DSRxwY1AAe9roKc19+v7tr/xg1rHHnETxVN03Dr1o3Kzk6MjI1jno+vYWVbK6qrKpS0Zds2zg3y2IPIQwc1CTzndRXkrJmZOczMqrnzunFZHRqX1Slpy0nRaATr1qq5vUVKyc4KF+6z2LQOhqJg1T8wpKQdIlo8IcRzWnN06l8AfOh1MeSc/nNqjv4DhoG1ijpVNzQ11qO8vFRJW6qfnshXkXAIq9rVXAqYmJxCwoU5HojoShI43hiZ/I4mHnjVhJSfB8BznD41MjqupJ22thaEQ7l33f9GhBDYsHaVkram45YbrAAAIABJREFUpmeRTnMTAYAVy5sQi6q5BKTqt0lECzYvpfyceOBVUwOA5of3vgYhfxWQjOM+k06nMTub/SNXAcNAa0v+jeNeVlaCqko1163HxieVtJPvhBBoa1MzWRK/UyI3yZSU4onWh/e+AQCXRvho3rH3O8IW9wE44FltpNzY2JSSdlpbGnPukb+FWtmuqLMaY2d1UVNDPUIKzgaNj08U5GiLRB7oBOS9LQ8//+zFF67YozftfOEdKbG9b//un4eN3RDYAKD26vc5wRKiCRIBp5dTaMYm1HRajY25f+PfjVRWlCMSCSOZ5fXmcUXfpR9omoaG+jqc6e7Nqp10OoPZuTlPR5IkcpMlRAZAnwuLMnH+Mf/DEuKF5h3P/1AIXJG2r+nYz7/hhR8A+IELBV6yZf8DpwWwws1lFoIZBeOul5WVoCiWv9NFCCHQuKwOJ093Z9XOXDwBy7Kg67qawvJcY0Nt1gEAAKanGQCocIzKUF/zQy+0eV0HcNklAPKnuXgi6zZqa9TPDOe2mho1kwXFE9l/n35RWlqCcCj7YaD5nRJ5gwHAx+bTaWQymazbqaosV1CNt8pKS5Ucuc/NsbO6nIrfBr9TIm8wAPhYfC6ZdRtCCJSVliioxluaJpQMD6zijIqflCkYZyHO75TIEwwAPpZKzWfdRjQahqZ4OlivFBVlfx9DKpn9d+onxUXRrNtIKvidEtHi+WPPTtdlWtlPthLL45v/rqbibzFNTmBzuaJo9gGA3ymRNxgAfEzFjjUU9M+TmaFg9k+zmopmVPSLgIKxAKSUsGxbQTVEtBgMAD6morMyDP888mboCgIAj1avoGsahBBZt8Pvlch9DAA+ZlvZH1Xpmo8CQCD7AGBz1Lpr6Hr2uxEVv1UiWhwGAB/jEKtXCoWzP12tYvhbv7EUdN5+OtNElC8YAKhgxCLRrOey54h1V7IsS0nQ1BVcniGixWEAoIKhaQK1WY4IWF+X/6MiqqTiUVNN06Bp2d9HQESLwwBABaW9rXXJN63V1lbxDMBVVAyMlK+zTBLlOwYAKiglxUVoW9686M8FAwFsWLfagYry21w8nnUbkWhYQSVEtFgMAFRw1qxuQ2PDwqc3DgQMbN+2CdEIO6qrjY9PZd1GUSz7wYSIaPF47o0KjhACWzevR2lpMU6cOIvMRzyDXllRhk0b17KTug4pJcYnJrNuR8UQzUS0eAwAVLBWtDajcVk9BgaHMDIyhkQihYxpIhwOo6ykGMvqa1BVVeF1mTlrbHwSppn9YFNF0YiCaohosRgAqKAFgwEsb2nC8pYmr0vJO/0DQ0raKS3LfkZBIlo83gNARIuWyZgYGhrJup1oJMx7K4g8wgBARIt2trtXyVwTvMRC5B0GACJaFDNj4kx3v5K2qirLlbRDRIvHAEBEi3LsxGlkMpms29E0gerq7EZmJKKlYwAgogWbmp5Fd++AkrZqqisRDASUtEVEi8cAQEQLYloWurqOKJtlsrGxXkk7RLQ0DABEtCDvHT6KWQVD/wLnR1esrebESkReuu44AJ2dTwWqh4bvg9DWCYlaocHxybo/JcyKWclhCYhy0YfHTuHcuewf+7uopakBmsbjDyo8JcKs6Nv36J84vRxpw5ICw9DkkdHqmp9s2/b1a27cuaLHPffizqip6V/A8MgXIEQ5IAEBKDrj95Gi0sQsxyUiyjmnz/bg1JkeZe3puoYVS5iQicgPotIsk1J+2fEFCUAAgA3UDI9M9O7b9TXDsv9y2c4XL03heSmCn92/u9XU9LcA/D4APptDRDhx8gyOfnhKaZvNTQ0IhYJK2ySij1QBKf7Q1PQ3zry8p+XiixoA9D/3aKVu44cANnpWHhHljIxpovPgYRw/eVZpu7qmoW1Fy83fSERO2GzAfnVw32PVwIUAYIfxTQBtnpZFRDlhcnIaP/npOxhUMNTv1dpWtCASDilvl4gWrDUjM38LAEb3S7vugpSPeF0REXkrncng2PHT6O07p+xRv8vFohG0t7Uqb5eIFm1P/749dxiawBNeV0JE3plPp9HT04/T3X0wM6Zjy1m/bhV0nXf+E+UCW1qfNgRwvws3+RNRDrEsG6NjE+jvH8Tw6Bhs23Z0eY3L6lBbw+f+iXKHeMCQUjSef1aAiPwmY5owTQvz82nEEwnMzsxhcmoaE5PTjnf6F8ViUWzcsNqVZRHRwkigyZACkv0/UX7JZEy8uO9HXpdxU5qm4datG2AYHOODKJcIQGoCUDOvJxHRVTauX43SkmKvyyCia/VrAF7xugoi8p/VK5ejuWmZ12UQ0XVIgR9pmi2e8boQIvKXluYGrFq5wusyiOj6pCblP2mNO59/E8ALXldDRP6wrL4WG9fzpj+iXCWk+G7TQ3vf1gBA6IEnIaF2wG8iKjhNjfW4Zct6CMFbi4ly1Fldmr8BXBgKuOmTz05omvYAgAOelkVEeat9RQu2bFrHzp8od71nafj4sp0vjgGXzQbYuOO5fhEP3CuB34HAuHf1EVE+0XUNWzatw9o17V6XQkTXIzAupXxaxAN3Ln/whe6LL1/xcG7TLz2bBPDH8pX7/3wgXnKvJfSNQqJWaNCdri8hjM9Doszp5RCROkWxGG69ZT1KivmoH9FCJIQxJYT4O6eXI21YAnJIwP6gITrzmnjg1WvG+b7u6BwX3vgKXHxEcMv++x8TYAAgyhdNjfXYsH41DN3x4wMi35iRxkTTjuef9roO4AYBgIjoRmKxCDauW43q6kqvSyGiLDAAENGC6LqOlW2taFvRDE3jrH5E+Y4BgIg+kqHraGpchvb2FoRDIa/LISJFGACI6LpCoSBamxuwvLUJgUDA63KISDEGACK6RNc01NRWo7GhFrXVVXymn8jHGACIClxJcREqK8tRXVmBysoyTt1LVCC4pRP5nK7rMIzz/yKRCIqiERQVxxCLxlBWWoRgMOh1iUTkAQYAKmjz6TQGzg1hZGQciWQKpmkiFAqhvKwE9XU1qK6q8LrE6zICBn7u/rtv/j5D52l8IrouBgAqWKfP9OLEqTMwTeuK1+fn05iZmUVP7wAqysuwadMaFMdiHlV5fQJAIMDNl4iWjg/zUsGRUuJQ1xEcPXbyms7/ahOTU3j99U6MT0y5VB0RkTsYAKjgfHjsNPrPDS34/RnTxLsH3kcikXSwKiIidzEAUEGZmZnDme7eRX8uk8nggyMnHKiIiMgbDABUUE6eOQsp5ZI+Ozw6hpmZWcUVERF5gwGACoZt2xgZmciqjaHhUUXVEBF5iwGACkYikYRpXjMl9qJMz84pqoaIyFsMAD7G57+vlJpPZ93GvII2KHct8eqQb3Ef4m8MAD6m6dmvXsv+6Mfk8omZye7oHwA07hBzlq7rWbdhWbaCSnKDaWX/e9eN7L9Tyl0MAD5mKNgh3uw5+XySyfL0PwCOk5/DdAXrxlLQaeYK08w+zKjYh1DuYgDwMRWd1Xw6o6CS3JBWcAaAO8TcFVBwtDqf9s8lHhV/i8EzAL7GAOBjhp59AIjH4woqyQ0q/haDw+/mLBWBd27OP4M9JeKJrNtg4PU3BgAfC4dDWbeRSKRg2/64Ljo3l30AUPGdkjPCoexnNfRL4LUsG4lkKut2Qvy9+xoDgI/FiiJZtyGlxNT0jIJqvGXbElPT2Q/iUxSLKqiGnBAryn7CpqmpmSUPFJVLJqemlfwdRQq+U8pdDAA+FgoGEQgEsm5ndGxSQTXempyahmVlf0NjUREDQK4qimYfeE3LwuTUtIJqvDU+nv02GwwGEFSw/6DcxQDgcyo6rJGRMQWVeGt0dFxJO7EoA0CuUnEGAACGFf1WvDQymv02W5RjU2CTetfcNSM7OrT+27o+IaXYBSnXQ6AWgON3gjwp5pvGJK83qVZSXIzJyeyOaKamZzAbj6M4T3cIUkr0LWL2vxspisWUPGtOzjB0HbFYBPF4djfyDQwMY83KFXk7CM7cXFzJ5a6Skvzc3nNdtZhv6n1592kXFmVBYhhCHIG0n2/q3PpvoqPjihu6rggA/S8+emev1vU3QmILIAEXf/+6D6675aKqyjL09PZn3c5A/xDWrG5TUJH7xsYnkVJwQ1RlZbmCashJVZUViMcHsmojmUxifHwSVVUViqpyV2/foJJ2qirz8+/PdbqUAQArXFmYwEpA3gMhPt93W9fBvpd3/WbTQ3vfvvjfly4B9L68+3Fbk68IYIsrhZErqhR1Wt09/UpG0vPCqTM9StqprixT0g45R1VIO31WzW/GbRnTRE9/dgEIOD8EcGUFA6+vSNwiIX7cu2/XL198SQOAvn2P3gfgWwB4Dt5ngsEgSoqLsm4nY5ro7sn+TILbJienMTaW3QyAF1XwDEDOq1LUaY2MTmBqKv+efjnb3ackqBcXFyEY5A2APhSCFN/u2f/oPQCgdXY+FZC2/HsAXNs+VV1VqaSdk2e6kZqfV9KWG6SU+ODDE0raKisrQSiY/XPm5KxQKIjSkmIlbR358KSSdtySTM3j9Gk1Zy5qq9XsMygnBYUtv9HZ+VRAqx4ZfhwC7V5XRM5pbKxT0o5pWjiaRzvF3r5zyo7iGhvUfIfkPFXramJyCn3955S05YYjH56EqeBRV4C/9wKwqnZo5Jc1IcUeryshZ5UUF6FE0VHRwLlh9A9kf0e90+LxJD48dkpJW0IILKurVdIWOa+xoU7ZHfwfHD2JOQVD6jrt3LkRDA4OK2mrrLSYAwAVAKmJPRqAW7wuhJzXpDDRHz5yPKd3ipZt48Chw0pm/wOAmupKhBQMM0vuCAaDqFZ0Cts0TRzq+iCnh8Oejcfx3uGjytprbKhX1hblLiHlLRqAGq8LIec1NNQpe4bdNE280/ke0jk4c5qUEoe6jmB6JvvnoC9qaW5Q1ha5o7VJ3Tqbmp7FofeO5uQQwfPzabzz7nvKTv3ruo6GZTz9XwgkUKcByL9bXWnRQsEgmpuWKWsvHk/g7Xe7lB1lq3L4yAkMDo0oa6+kuBi1NVXK2iN31NZWKXn65aJzg8P44OhxZe2pYGZMvN35HhIJdTMYtjYv493/hWNKkwJqLpRSzmtb0QJNUzf689T0LF5/sxOplPdPBkgp8d7hD5UMenS5Ve0tStsj97S3typtr7tnIGfOBMzPp/H62wcxrXCiLk3TsGIFf++FQ57ShC1e9roMckckHEJTo9rre7Ozcbz+ZqfSU+6LlU5n8Pa7XejtU3vHdlFRFHV1vEKWr5bV1SCmePbG/oFBvN35HtKZjNJ2F2NqehavvdGJGcXbXHNTPcIhDgVTKCS0l7R0AP9VAt7tvclVq1Yuh2GoHc8+kUzh9Tc6cdaDgYLGJ6bw45++jVFFg/1cbt2alXk7Hjydf3pj3ZqVytsdHR3Hj3/6DiYm3J81sLu7D6+/2YlkUt1pfwAwAgZWtbszOi3lAIk5G8Y/aO2feH4EEH/kdT3kjnAohNWr1G/olm3jgyPH8fqbBzAzO6e8/atlMiY+OHICb7590JFLEHV11bz27wN1tVWOrMdUMoXX3+rEofeOYt6Fm2FnZubw+psHcPjoCUeeSFizso1PuhQU+XvLH3p2SAOA5h3P/ymAf/a4InLJ8pYmlBSrGRfgahOTU/jJT99B13tHHXlUMJMxceLUWfzo1TdwtqfPkeuxuq5jw1r1R47kjfXrVkHXnZn5vH9gEK/8+C2cOHXWkbky5uJxdL1/FD95/R1MTE4pbx8ASktL0NrCJ10KhQSeaXpo79eAC7MBCgEpO7Y80be96wyAp3GdaYLJP4QQ2LRxNV5/84AjHaiUEn0Dg+g/N4Ta6io0NtahtqYqqxsQJyam0X9uEAPnhmCaah55upHVK1cgEok4ugxyTywawaqVK5QNDHW1TCaD4yfO4PSZHjTU16GxsQ4V5UufOMqybYwMj6J/YBjDo2OO3nQohMCm9at5qaswZKSQf9z8ztbfEw+9IIHLOvoL8wT/54H9jzxj2vqXAPmI4BgBvlVeVorVq1bg2HHnpqWWUmJoZBRDI6MwDAOVFWWoqixHaWkJimLRG55yNE0Lc/EEZmdnMTY+hbGxCdfmIKiursSK5U2uLIvc07a8GWNjE47cK3KRaVro6RtAT98AwuEQqiorUFVZjuLiIhTFIjCM6x9Xzc+nMRdPYGp6FuNjExifnILp0uO1a1e3o6ysxJVlkTckMAIp9+pC+4vGHS+cAPZe+r9rfpEND37vOIBflxJPde97rDZgm7WWkI6fEZhAcC8AnodyUfuKFoxPTGF0dNzxZZmmieGRMQyPjF16zdB1BIIB6LoOTWiwLBPzmYxn0w6HwyFs3byOR0M+JITALVvW48evvY3UvPPX7FOpefQPDKJ/YPDSa4GAgWAgAF03YEsblmUhnc7AUjSIz2LVVlehbUWzJ8suZBMIDkiJXU4vR5fCzGjGcOuOZ4eFwHVPI92wYz//gWeHALgy8PuW/Q/Mc7frLiEEtm5eh5/89B1PnuU3LQtm0pud39WEELh16wbO+OdjwWAQW7dswFvvHPLkWf5MxkTGo3B7tUgkjC1b1nldRkFKQ5tvefiFA17XAQDO3BlDeSMUDOKO7VsRCBT26F+bN63N6rot5YeqynJs3VzYHV8wEMAd27cgWODbPDEAEIDi4hju2L5F2VwB+WbdmpVo4gQoBaNhWR3WrS3MGdB1XcP2bZs42x8BYACgC8rKSnDr1g3QtMK6ENO+ooXXQQtQ2/LCW++aJnDrLRt5posuYQCgS2prqnD7ti03vFvZb9pXtGDtmsI8EqTzZ34KZf3ruo7bbt2M2moObkU/wwBAV6iqqsCdt9/i65vhhBDYtGF1wez86cbaV7RgyyZ/P/kRCARw521bUV1d6XUplGMYAOgaZaXFuOvOW1CkeCKVXGAYOrZt3YiW5kavS6Ec0dRYj1u3bvDlma/iWAz33rUN5eWlXpdCOYgBgK6rKBbDvXdvR8OyOq9LUaa0pBgfu/s21NVVe1qHmqNN/x6xeqG+rgb33r0dJSXODJHthcaGOtxzz3blMyKSfzAA0A0ZhoFbtqzHlk3r8v4JgcaGetx95605sTNU8fhVKMhHuFQrikVxz13bsLwlv0eC1DUNG9atwtbN62Hk+XZLzvLfOS9SrqmxHpUVZTh89ARGLhvJLx/EYhFsXLc6p65/GoaOYCCQ1ZzykSjnKnCCrmnYsH4V6uqqcfjIMczNqZ/QyklVVRXYsH4VimN8zI9ujgGAFiQajeD2bZsxNDKKD46cVD4fuWq6rqF9RQva21qzmoTIKTU1VVcME7tYvJvbWVWV5bj/3jvQ3dOPD4+f9my43oUKh0NYs6oNTY0cz4IWjgGAFqWuphrVlRXo7hnAmbM9royrvhi6rqGpqQHtK1oQCYe8LueGWpsblhwAjICBhoZaxRXR1YQQWN7ahLraapw+04PevnOwbNvrsq4QDoXQtqIZLc0NeX+ZjtzHAECLpus62lY0o7W1EX19gzh9phuJZMrTmgzDQEtTA9pWNN9wlsFcUl5eisZldeg/t/ipNtasXMFhXF0UiYSxYf1qrGxfjtNne9DTe8612fpuJBoJo62tFc2N9Tl5hovyAwMALZmuaWhtaUBL8zJMTs6g/9wgBs4Nu7ZzFEKgvKwUjQ11aGioy7sbnjZtXIO5eBxT07ML/kxjQz2Wt+b3TWr5KhQKYt2alVi9sg0jI6PoGxjCyOi4axML6bqGmppqNDbUora6ytdjF5A7GAAoa0IIVFSUoqKiFOvXrsTQ8BjGxicwNjah/MxAIBBAVUU5KqvKUV9XjXAod0/z34yu67jz9lvQ9d6HGBwe+cj3CiHQ1taCNStXuFQd3Yiua6ivr0V9fS1SqXkMDo1ibGIC4+NTyGRxY+f1xKIRVFaWo7qyErW1lTzNT0oxAJBSuq6jYVktGpadv0adSKYwPjGJ2Zk45hJxxOeSiCcSCzpqikTCiEWjKCqKoChWhIryEpSUFPvqyMcwDGy7dSNGRidwtrsHY+OTsO2ffTcBw0BtTRXa21pRXMw7u3NNOBzC8tZGLG9thJQSMzOzmJicwVx8DnNzScwlEkgtIAQLIS791mPRGIqLY6isLEc0Enbhr6BCxQBAjopGwog21AMNP3tNSgnTNJHOmLAsE6ZpwbYlDMNAMGDAMHTougFdL5xrmzXVFaiproBpWUgmUsiYGQSCARRFo74KPH4mhEBpaQlKS0uueN2ybJimCcuykM6YME0TmiYu/c7P/+YNrmdyHQMAuU4IgUAggABvZLuGoes80vcZXdeg6+dvTPV+GCqinymcQywiIiK6hAGAiIioADEAEBERFSAGACIiogLEAEBERFSAGACIiIgK0A0fA5QdHVrPHe/XGhlZYwnp+OOCj8EOZZhHiIjIx4KwQz0v7b7V6eXoUphmQIy0vLVpWHR0XHcWq2s69p59u9YJW3yxT3Q9olmosjXAjeEpKpDGMDjqFRER+VcF0g1CoNPp5dhCQrMk+rZ3jfa+vPt7lq3/xfKd3z12+XsuHXLLjg6t9+XdfySkeB8CnwPACceJiIjyWzWAJ3XNOty7b9cfyI6OS/2+BgBSQvRt73oGwFcAcLYJIiIifzEgxVd7tx36tpTnT+xrANC7b/fTAB73tDQiIiJylBDiU/37Hv0SAGjd399TL4Cvel0UEREROU9C/m739/fUa5pt/xoAzj5CRERUGGKabX1Wk8CDXldCRERE7hFSPKQJiZVeF0JERETusYF2DUCx14UQERGRewRQqgEY9roQIiIictWgBuCg11UQERGRqw5qEnjO6yqIiIjIPUKI57Tm6NS/APjQ62KIiIjIeRI43hiZ/I4mHnjVhJSfB5D2uigiIiJy1LyU8nPigVdNDQCaH977GoT8VUCmvK6MiIiInCBTUoonWh/e+wZw2WyAzTv2fkfY4j4ABzyrjYiIiJzQCch7Wx5+/tmLLxiX/2/TzhfekRLb+/bv/nnY2A2BDQBqr36fEywhmiARcHo5hUJKCcuWgJTZNSQEdE1ACKGmsCWQErBsC8jyTyFyhQB0TYeHm4yvtn+/sYTIAOhzYVEmzj/mf1hCvNC84/kfCnHlXvSajv38G174AYAfuFDgJVv2P3BaACvcXKbfmKaF2bkEkql5WKaltG3D0BEOh1BcFIVhOD9jtG3bmLvwt6TTpuPLI1ItGDQQDodRXBSBpmk3/0CW/LT9+9moDPU1P/RCm9d1AC4c2ZPzpARmZuYwMxt3bBmmaWFuLoF4PIGS4hiKi4scO8JJJFKYmJqBtHnIT/krnTaRTs9hdi6O8rISxKJhR5bjt+2f3ON8LCXHTUxOO7rxX05KYHomjomJaUfan52NY3ximp0/+Ya0JSYmpjE7m3CkfT9t/+QuBoA8Nz0TRyLh/sMbiWQKszNqdzrJ1Dymp+eUtkmUK6anZ5FKzatt00fbP7mPASCPmaaF2VnvOszp2biya41SAlNTs7zPj3xLApicms36vryL/LT9kzcYAPJYPJ5UtjNZCiklZhNJJW2lUimY3JmQz5mmhaSiswB+2v7JGwwAeUzVjiQb84pqSKY4ECUVhlRSzSl7P23/5A0GgDxmmt4/HpfJqKlBVTtEuc60bDXt+Gj7J28wAOQpaUtPT/9dqkNCyR37tq1mp0iU6ywr+0tdftv+yRsMAHlK5MjoXJrQILTs69B1/hSpMBh69gPp+G37J29wr5vHgkHvR042gmpGBQsEvP9biNxgBNSMv+an7Z+8wQCQxyLhkNclIBpWM7pZJOL930Lkhqii37qftn/yBgNAHosVhaF5eOpc1zTEYhElbYVDQYRCQSVtEeWqUDCg7Hfup+2fvMEAkMc0oaG8tNiz5ZeVF0NTeP2vrLQ4J65rEjlBExrKy0vUtuej7Z/cxwCQ56LRMMpc3gkIAKWlxYhG1J7+CwYNVFaWMgSQ7wghUFlZgoCi6/8X+Wn7J/dxNkAfKC6OwgjomJqadXw0PcPQUVZW7Nj1x0g4hNqackxMznAaYPKFYDCA8rISBIPO7G79tP2TuxgAfCISDiFcG0QikUIylYZpmrAsG8h6dH0BXddgGAYikSCikYjj04AGAgHU1lQimZpHMjmPdDoDy7aREw8+E92MENA1DcFgANFwCGEXbnD10/ZP7mEA8BEhBGKxiG9uzImEQzzSIFogv23/5DzeA0BERFSAGACIiIgKEAMAERFRAWIAICIiKkAMAERERAWIAYCIiKgAMQAQEREVoOuOA9DZ+VSgemj4PghtnZCoFRocn/PxU8KsmJUcloCIiPyrRJgVffse/ROnlyNtWFJgGJo8Mlpd85Nt276eufo9V/S4517cGTU1/QsYHvkChCgHJCDcGYAtKk3MclwiIiLysag0y6SUX3Z8QeL8vA2wgZrhkYnefbu+Zlj2Xy7b+WLi4lsuXQI4u393q6npbwH4fQDljhdHREREbqiAFH9oavobZ17e03LxRQ0A+p97tFK38UMAGz0rj4iIiJy02YD96uC+x6qBCwHADuObANo8LYuIiIic1pqRmb8FAK37pV13QcpHvK6IiIiIXLGnf9+eOzRN4AmvKyEiIiL32NL6tCaA+70uhIiIiNwkHtCkFI1el0FERETukUCTJgVceMqfiIiIcoUApCaAfq8LISIiIlf1awBe8boKIiIico8U+JGm2eIZrwshIiIi10hNyn/SGnc+/yaAF7yuhoiIiJwnpPhu00N739YAQOiBJyFxyuuiiIiIyFFndWn+BnBhKOCmTz47oWnaAwAOeFoWEREROeU9S8PHl+18cQy4bDbAxh3P9Yt44F4J/A4Exr2rj4iIiJQRGJdSPi3igTuXP/hC98WXjcvf0/RLzyYB/LF85f4/H4iX3GsJfaOQqBUadKfrSwjj85Aoc3o5REREXkkIY0oI8XdOL0fasATkkID9QUN05jXxwKvm1e8xrvfBC298BS4+Irhl//2PCTAAEBGRf81IY6J+U3zrAAAMlklEQVRpx/NPe10HcNklACIiIiocDABEREQFiAGAiIioADEAEBERFSAGACIiogLEAEBERFSAGACIiIgKEAPAIpmwvS6BiIiuwn3z4jEALFLKumYwJSIi8ljS5r55sRgAFmnSSsFm0iQiyhkWJCYzSa/LyDsMAItkShtDmbjXZRAR0QVD6TlYkF6XkXcYAJbgWGLM6xKIiOiCo8lRr0vISwwAS3AoMeR1CUREdEEX98lLwgCwBO/FhzBtzXtdBhFRwZs25/F+fMTrMvISA8ASWJD4H1OnvS6DiKjg7Z8+yRuzl4gBYIl+MH0KU1bK6zKIiArWhJnEv02d8bqMvMUAsERJ28Q/jr3vdRlERAXrH8feR0ry+f+lYgDIwluz/fjxTI/XZRARFZxXZrrxztyA12XkNQaALH1z9BAOJ3kDChGRW44mR/Gt0S6vy8h7DABZMqWNvxp8C0f4HCoRkeOOJEbwtcG3kJG88S9bDAAKJG0Tf37udfz79FmvSyEi8q0fTp/Fnw2+gZSd8boUXzC8LsAvMtLGN0YP4b3kMD5TtQkVRtTrkoiIfGEsk8C3x97Dgfig16X4CgOAYp1z5/B+Yhj/oWQFHixrQyWDABHRkoxlEtg/dQr/PnsWadvyuhzfYQBwQNq2sH/qJP7H9CmsDVdhc7QOayKVWBYsQUTjV05EdD0J28S59AyOpcbRFR/E8dQ4bMlJfpwirn5BdnRo/bd1fUJKsQtSrodALQDd6UKe1O9qGpOhgNPL8VpUDyAiAtDFNV+97+lCIKIFUKVH0RgqxupIFVaHqxAQvBWFCk9G2jiWGsPxxBgG0rMYsxJI2hlYBdjhWVIiaaeRsP3/TH+VmM98w3qjz4VFWZAYhhBHIO3nmzq3/pvo6LjizskreqH+Fx+909Lk3whgiwvFXeEp7U4MI+z2YsljUT2AO2KN2FG2EvXBIq/LIXLcucws9k+dwltz/UhYvJmt0NQiha/bb7q/YIGDQsrfbHpo79s/e+mC3pd3Pw7gvwEIuV8ZA0Ch04TAvcXN+JXKDSjRPfkJEjlq2prHv45/gJ/O9vK0dgHzLACcNw8hP9O8Y+93gAuPAfbte/Q+AN+CR50/kS0lfjzTg9/u/SGnWybfOZwcwVd6f4ifzPSw8ycvhSDFt3v2P3oPAGidnU8FpC3/HoDvr79T7pu15vG1c2/gpamTXpdCpMQPpk7jz869zinEKVcEhf3/t3fvsVnddRzHP7/TFsQxHTAuDsoYLJuLZoENExNNDMkio2XjsuA0cU6zZEswkv0xFP9ZwJgpwbm4SBbnJWTiLUBLuTo0UeNiwiiCbCkbAhO5taU8LdfS9nnO1z9YDYG2T9tzTs/t/foTen7nk34Tvh84Tzn2y8bGZ6sqJ7a2fEXO3Rt3IqCXSfpd2zvq8ot6YvwDcccBhm1L4bDqCofjjgHc7L7Jza1Pes7c0riTAH2pKxzW78+/G3cMYFjqWP5IMPPcUk/SQ3EHAfqzvf0IJQCpU1c4rC0sfySYM3vIkzQp7iDAQCgBSBOWP9LApCmepItxBwHKoQQgDVj+SJEOz5yOxp0CGAxKAJKM5Y90saOe893OuGMAg0UJQBKx/JE2Jm+H112ln5t0Ke4wwGBRApAkLH+kjumyr8oN3r3z61sl91LceYChoAQgCVj+SCdbc0/tpmZPkqbX1K+V9NuYEwFDQglAnFj+SCOTNlbXNrwsffguAOdk1ftmPyXp+5Ky/z5GZAYlAHFg+SOFeszZ96bvm/20czLpptcBS9Lp3Y/fX/QrXpDscTeC/0cAbwNEEI+Nu09fnvDpuGMgB1j+CGKk3wZoUqvMGiqc96NptfVHbvy9WwrA/y8yuf/sWja5yi9OLjmrjDrksoovNPTImxr1fZBdlABEjeWPoKrkn95U+tuiqO9TYa7Y41W2zKjZ1NL7N/6b9bvYr1+wqVnSiLybdfbueV39thFgELa3Xy+3lABEgeWPMHTL67p74db9ceeQPvwMAJAVfCYAUWD5I4soAMic7e1HtKXQFHcMZMSWQhPLH5kU+bN9IA51hfd02e/RUxMelOd4uISh883067ZD2nPhWNxRgEhQAJBZezqO6VT3RS2f/BmNq+AnTDB4hWKnXmtpVFPnubijAJGhACDTmq6e07dP7NHS8Q/okY/PUpXjqRf612O+9lw4pvrCYXX6/JcoyDYKADLvql/UxrZ3tKP933rkjpn63NhqTaq6Le5YSJDWnit669JJ/fniMV0odsUdBxgRFADkRkfpmjafb9Lm8026a9Tt+uSYO/WJqts1ofIjGuNV8VmBnPDN1On3qK3YqbPdl/R+53md6eF9aMgfCgBy6Uz3JZ3p5g99APnFA1EAAHKIAgAAQA5RAAAAyKHEFACnvl9WAABAViRp1yWmAEgqxB0AAIAomVNb3Bl6JacAOHc87ggAAETJmT6IO0OvxBQAM9sddwYAACLltCvuCL0SUwB8r3uzpOa4cwAAEJGzJdddF3eIXokpAIfmr7xict+NOwcAAJEwW3Vo/sorccfolZgCIEkHF6zYYNL6uHMAABAmk9YfqHn+jbhz3ChRBUCSDj664luS/SzuHAAAhMHJNhzc274i7hw3S+bbT8zcnD/+5DXJPRd3FAAAhsvJNvxzb8czWr3ajzvLzZJZACRKAAAg1ZK8/KUkFwCJEgAASKWkL38p6QVAogQAAFIlDctfSkMBkCgBAIBUSMvyl9JSACRKAAAg0dK0/KU0FQCJEgAASKS0LX8pbQVAogQAABIljctfSmMBkCgBAIBESOvyl9JaACRKAAAgVmle/lKaC4BECQAAxCLty19KewGQKAEAgBGVheUvZaEASJQAAMCIyMryl7JSACRKAAAgUlla/lKWCoBECQAARCJry1/KWgGQKAEAgFBlcflLWSwAEiUAABCKrC5/KasFQKIEAAACyfLyl7JcACRKAABgWLK+/CXJiztApJyzA3s7lpu0Pu4oAICUMPfTrC9/Kev/AnCD2btf/bqT/UDSlLizAAAS6azMVh2oef6NuIOMhNwUAEl68M11t1WUqp6Q59XI7B6T7hzqGaPkjx6v7qlBcpSc6zlno08GOWMwPuaK4z9qxTuCnHHVVXZctMpCWJn6M9F1VVeYVQU5o6BRp7vldYWVqS/MPxrMP3zMf3Cc1CbpuJx2lVx33aH5K68EyZEmuSoAYTixY/HDzqkx4DHHp9dunRVKoAGc3LXkh2b2nSBnOOfWVtfUrworU3/+u3PxMUkzg5xhprl3L9y6P6RIfWL+0WD+4WP+KCfbnwEAAAB9ogAAAJBDFAAAAHKIAgAAQA5RAAAAyCEKAAAAOUQBAAAghygAAADkEAUAAIAcogAAAJBDFAAAAHKIAgAAQA5RAAAAyCEKAAAAOUQBAAAghygAAADkEAUAAIAcogAAAJBDFAAAAHKIAgAAQA5RAAAAyCEKAAAAOUQBAAAghygAAADkEAVgiCrMFUM4JowzyjJfpSScMUiBvychzWYk7sH8b8X8Q8b8UQ4FYIh6vMqW4Ke45uBnlGdOgbM6z86GkaUsU2vQI66NUuRZmX9EmH/omD/KoQAM0Yx9n2qVdC7YKfZuKGHK3cUp+H1KIZwxGC7w96Rl1hfrA86lPOYfEeYfOuaPcigAQ+RWr/YlbQt2iBrCSTOwtkkT/y6pMOwDnM5PG9vxVniJBrqVF+h7YmbbnJOFlac/zD8azD98zB/lUACGocLz12n4z6z2VS/Y+qcw8/Rn7tzXe2Tux8O93nxb5+b9dUSeq02rqX9T0v5hXl40ea+EmWcgzD98zD98zB/lUACGYeqCbe/L2dqhX2nXJH/5SDbVSiu+IulfQ73OSQe8q6NejSBS3/dzMif7pqSuoV5rzl6asbD+cASx+sT8w8f8o8H8MRAKwDBVvz3nRTP7zRAu6TLzvja9dltjZKH6cNdj268W5S2SdHzQF5mOVvilxdVf2tQZXbJbVdc27JWzpyV1D/YakzZOf3vOmghj9Yn5h4/5h4/5YyAu7gBpZiZ3ateSF8zsRTmN7e/rnOy9kumZGQsb/jGS+W50qm7JBH+0vS5p6UBf58xtVmXlc9WPbhr+s8OATuxe8nn59gsn3d/vF5kuS7amurbh5bie/TH/aDD/8DF/9IUCEIIPdi6b4qnnG5600KRZksZJapbU6Jyrmzam/Q8j9SytnFO7ln7Wt9JXJTdPpunXf9WdkOwvztnG6tqGvfEmvK6x8dmqyc2tT5rnlsrsYUlTJLU76Zgv7SgV/V/NXLQthB/JCo75h4/5R4P540b/Az+jH5/NLedNAAAAAElFTkSuQmCC;" vertex="1" parent="1">
          <mxGeometry x="159" y="500" width="512" height="512" as="geometry" />
        </mxCell>
      </root>
    </mxGraphModel>
  </diagram>
</mxfile>
